<?xml version="1.0" encoding="utf-8"?>
<!-- Generator: Adobe Illustrator 16.0.0, SVG Export Plug-In . SVG Version: 6.00 Build 0)  -->
<!DOCTYPE svg PUBLIC "-//W3C//DTD SVG 1.1//EN" "http://www.w3.org/Graphics/SVG/1.1/DTD/svg11.dtd">
<svg version="1.1" id="圖層_1" xmlns="http://www.w3.org/2000/svg" xmlns:xlink="http://www.w3.org/1999/xlink" x="0px" y="0px"
	 width="595.281px" height="841.891px" viewBox="0 0 595.281 841.891" enable-background="new 0 0 595.281 841.891"
	 xml:space="preserve">
<path fill="#FFFFFF" d="M297.64,606.97c133.59,0,241.832-108.243,241.832-241.833c0-133.589-108.241-241.832-241.832-241.832
	c-133.589,0-241.833,108.243-241.833,241.832C55.808,498.727,164.051,606.97,297.64,606.97z M271.829,236.548v-19.532
	c0-10.696,8.604-19.301,19.3-19.301h12.905c10.697,0,19.301,8.604,19.301,19.301v19.765c18.021,0.932,35.461,7.094,49.994,17.905
	c6.51,4.768,7.209,14.301,1.395,19.881l-18.95,18.021c-4.419,4.302-11.046,4.418-16.277,1.163
	c-6.277-3.953-13.254-5.931-20.695-5.931h-45.227c-10.464,0-18.951,9.533-18.951,21.276c0,9.534,5.813,18.021,14.068,20.463
	l72.435,21.741c29.879,8.953,50.807,37.671,50.807,69.876c0,39.529-30.692,71.504-68.713,72.55v19.533
	c0,10.696-8.604,19.3-19.299,19.3h-12.906c-10.697,0-19.3-8.604-19.3-19.3v-19.767c-18.021-0.93-35.461-7.092-49.994-17.903
	c-6.511-4.769-7.208-14.301-1.396-19.882l18.952-18.021c4.418-4.302,11.045-4.418,16.277-1.162
	c6.278,3.953,13.254,5.931,20.695,5.931h45.227c10.466,0,18.951-9.534,18.951-21.277c0-9.533-5.813-18.021-14.067-20.463
	l-72.434-21.741c-29.88-8.953-50.808-37.67-50.808-69.876C203.232,269.567,233.81,237.594,271.829,236.548z M558.076,532.56h-37.787
	c-22.787,30.229-51.854,55.459-84.873,74.41h74.178c6.162,0,11.16,4.186,11.16,9.301v18.604c0,5.115-4.998,9.302-11.16,9.302H85.572
	c-6.162,0-11.162-4.187-11.162-9.302v-18.604c0-5.115,5-9.301,11.162-9.301h74.177c-33.02-18.951-61.97-44.182-84.874-74.41h-37.67
	C16.626,532.56,0,549.186,0,569.765V681.38c0,20.578,16.626,37.205,37.205,37.205h520.871c20.578,0,37.205-16.626,37.205-37.205
	V569.765C595.281,549.186,578.654,532.56,558.076,532.56z"/>
</svg>
