<?xml version="1.0" encoding="utf-8"?>
<!-- Generator: Adobe Illustrator 23.0.0, SVG Export Plug-In . SVG Version: 6.00 Build 0)  -->
<svg version="1.1" id="圖層_1" xmlns="http://www.w3.org/2000/svg" xmlns:xlink="http://www.w3.org/1999/xlink" x="0px" y="0px"
	 viewBox="0 0 85 85" style="enable-background:new 0 0 85 85;" xml:space="preserve">
<style type="text/css">
	.st0{opacity:0.1;fill:#FFFFFF;}
</style>
<path class="st0" d="M52.4,33c0,1-0.8,1.8-1.8,1.8c-1,0-1.8-0.8-1.8-1.8c0-0.5-0.2-0.9-0.5-1.3c-0.3-0.3-0.8-0.6-1.3-0.6h-2.7v9.6
	H47h0.2c1.4,0.1,2.7,0.7,3.7,1.6c1,1,1.6,2.3,1.6,3.8v1.7l0,0.1v4c0,1.5-0.6,2.9-1.6,3.8c-1,1-2.4,1.6-3.8,1.6h-2.7V59
	c0,1-0.8,1.8-1.8,1.8c-1,0-1.8-0.8-1.8-1.8v-1.5h-2.7c-1.5,0-2.9-0.6-3.8-1.6c-1-1-1.6-2.3-1.6-3.8c0-1,0.8-1.8,1.8-1.8
	c1,0,1.8,0.8,1.8,1.8c0,0.5,0.2,1,0.5,1.3c0.3,0.3,0.8,0.6,1.3,0.6h2.7v-9.6H38l-0.2,0c-1.4,0-2.7-0.6-3.7-1.6c-1-1-1.6-2.3-1.6-3.8
	V37v0v-2.1v-0.1V33c0-1.5,0.6-2.8,1.6-3.8c1-1,2.3-1.6,3.8-1.6h2.7V26c0-1,0.8-1.8,1.8-1.8c1,0,1.8,0.8,1.8,1.8v1.6H47
	c1.5,0,2.9,0.6,3.8,1.6C51.8,30.1,52.4,31.5,52.4,33L52.4,33z M42.5,11.5c8.6,0,16.3,3.5,21.9,9.1c5.6,5.6,9.1,13.4,9.1,21.9
	c0,8.5-3.5,16.3-9.1,21.9c-5.6,5.6-13.4,9.1-21.9,9.1c-8.6,0-16.3-3.5-21.9-9.1c-5.6-5.6-9.1-13.4-9.1-21.9c0-8.6,3.5-16.3,9.1-21.9
	C26.2,15,33.9,11.5,42.5,11.5L42.5,11.5z M42.5,0c11.7,0,22.4,4.8,30.1,12.4v0l0.1,0c7.6,7.7,12.4,18.3,12.4,30
	c0,11.7-4.8,22.3-12.5,30.1l0,0l-0.1,0.1C64.8,80.3,54.2,85,42.5,85c-11.7,0-22.4-4.8-30.1-12.5h0l-0.1-0.1C4.7,64.8,0,54.2,0,42.5
	c0-11.7,4.8-22.4,12.5-30l0,0l0,0C20.2,4.7,30.8,0,42.5,0L42.5,0z M68.3,16.7C61.7,10.1,52.6,6,42.5,6c-10.1,0-19.2,4.1-25.8,10.7
	C10.1,23.3,6,32.4,6,42.5c0,10.1,4.1,19.2,10.7,25.8C23.3,75,32.4,79,42.5,79c10.1,0,19.2-4.1,25.8-10.7C75,61.7,79,52.6,79,42.5
	C79,32.4,75,23.3,68.3,16.7L68.3,16.7z M61.9,23.1c-5-5-11.8-8-19.4-8s-14.4,3.1-19.4,8c-5,5-8,11.8-8,19.4s3.1,14.4,8,19.4
	c5,4.9,11.8,8,19.4,8s14.4-3.1,19.4-8c4.9-5,8-11.8,8-19.4S66.9,28.1,61.9,23.1L61.9,23.1z M40.7,31.1H38c-0.5,0-1,0.2-1.3,0.6
	c-0.3,0.4-0.5,0.8-0.5,1.3v1.8v0.1V37v0v1.8c0,0.5,0.2,1,0.5,1.3c0.3,0.4,0.8,0.6,1.3,0.6h2.7V31.1L40.7,31.1z M44.3,53.9H47
	c0.5,0,1-0.2,1.3-0.6c0.3-0.3,0.5-0.8,0.5-1.3v-1.7v-0.1v-4c0-0.5-0.2-1-0.6-1.3c-0.3-0.4-0.8-0.6-1.3-0.6h-2.7L44.3,53.9L44.3,53.9
	z"/>
</svg>
