<?xml version="1.0" encoding="utf-8"?>
<!-- Generator: Adobe Illustrator 23.0.0, SVG Export Plug-In . SVG Version: 6.00 Build 0)  -->
<svg version="1.1" id="圖層_1" xmlns="http://www.w3.org/2000/svg" xmlns:xlink="http://www.w3.org/1999/xlink" x="0px" y="0px"
	 viewBox="0 0 595.3 560.3" style="enable-background:new 0 0 595.3 560.3;" xml:space="preserve">
<style type="text/css">
	.st0{fill:#C29C61;}
</style>
<path class="st0" d="M281.9,157.9l54.7,15.6c3.9,1.1,6.7,4.8,6.7,8.9c0,5-4.2,9.2-9.2,9.2h-35.9c-3.9,0-7.8-0.9-11.3-2.4
	c-5.3-2.4-11.4-1.9-15.4,2.2l-19.1,19.1c-5.8,5.8-5.1,15.6,1.6,20.1c10.4,6.9,22.2,11.1,34.8,12.6v19.4c0,9.6,7.9,17.5,17.5,17.5
	h17.5c9.6,0,17.5-7.9,17.5-17.5v-19.3c33.2-3.9,58.3-33.9,53.9-68.9c-3.2-25.2-22.7-45.2-46.9-52.2l-54.7-15.6
	c-3.9-1.1-6.7-4.8-6.7-8.9c0-5,4.2-9.2,9.2-9.2H332c3.9,0,7.8,0.9,11.3,2.4c5.3,2.4,11.4,1.9,15.4-2.2l19.1-19.1
	c5.8-5.8,5.1-15.6-1.6-20.1c-10.4-6.9-22.2-11.1-34.8-12.6V17.5c0-9.6-7.9-17.5-17.5-17.5h-17.5c-9.6,0-17.5,7.9-17.5,17.5v19.3
	c-33.2,3.9-58.3,33.9-53.9,68.9C238.1,130.9,257.6,150.9,281.9,157.9z M584.2,359c-12.3-11.7-31.2-10.9-44.1,0l-95.4,80.9
	c-11.7,10-26.3,15.3-41.4,15.3H281.1c-9.1,0-16.5-7.9-16.5-17.5c0-9.6,7.4-17.5,16.5-17.5H362c16.5,0,31.7-11.9,34.4-29.1
	c3.4-21.9-12.6-40.9-32.6-40.9H198.4c-27.9,0-54.9,10.2-76.5,28.8l-48,41.3H16.5c-9.1,0-16.5,7.9-16.5,17.5v105
	c0,9.6,7.4,17.5,16.5,17.5h368.7c15,0,29.5-5.4,41.4-15.3l156.3-132.4C598.6,399.3,599.8,373.9,584.2,359L584.2,359z"/>
</svg>
