<svg id="f7e3e8ae-6b8d-4c4c-9d34-24cbe3ba39a1" data-name="圖層 1" xmlns="http://www.w3.org/2000/svg" xmlns:xlink="http://www.w3.org/1999/xlink" viewBox="0 0 180 36"><defs><style>.\36 226dbd4-026b-4e20-9119-34b25c20e1ef{fill:url(#7949518c-0964-4dbb-a529-3248fab9c7d0);}.abd0fa6c-f30c-44a3-ad9f-926028cf5ee3{fill:none;}</style><linearGradient id="7949518c-0964-4dbb-a529-3248fab9c7d0" x1="90" y1="36" x2="90" gradientUnits="userSpaceOnUse"><stop offset="0" stop-color="#bc9861"/><stop offset="1" stop-color="#bc9861" stop-opacity="0.3"/></linearGradient></defs><title>index_input_bg</title><path class="6226dbd4-026b-4e20-9119-34b25c20e1ef" d="M174,3a3,3,0,0,1,3,3V30a3,3,0,0,1-3,3H6a3,3,0,0,1-3-3V6A3,3,0,0,1,6,3H174m0-3H6A6,6,0,0,0,0,6V30a6,6,0,0,0,6,6H174a6,6,0,0,0,6-6V6a6,6,0,0,0-6-6Z"/><rect class="abd0fa6c-f30c-44a3-ad9f-926028cf5ee3" x="3" y="3" width="174" height="30" rx="3" ry="3"/></svg>