<?xml version="1.0" encoding="utf-8"?>
<!-- Generator: Adobe Illustrator 16.0.0, SVG Export Plug-In . SVG Version: 6.00 Build 0)  -->
<!DOCTYPE svg PUBLIC "-//W3C//DTD SVG 1.1//EN" "http://www.w3.org/Graphics/SVG/1.1/DTD/svg11.dtd">
<svg version="1.1" id="圖層_1" xmlns="http://www.w3.org/2000/svg" xmlns:xlink="http://www.w3.org/1999/xlink" x="0px" y="0px"
	 width="357px" height="313px" viewBox="0 0 357 313" enable-background="new 0 0 357 313" xml:space="preserve">
<linearGradient id="SVGID_1_" gradientUnits="userSpaceOnUse" x1="178.5" y1="313" x2="178.5" y2="4.882813e-004">
	<stop  offset="0" style="stop-color:#C19B61"/>
	<stop  offset="1" style="stop-color:#231815;stop-opacity:0.7"/>
</linearGradient>
<path fill="url(#SVGID_1_)" d="M346.161,3C350.76,3,354,6.241,354,10.839v290.322c0,4.598-3.24,8.839-7.839,8.839H11.839
	C7.241,310,3,305.759,3,301.161V10.839C3,6.241,7.241,3,11.839,3H346 M346.161,0H11.839C5.576,0,0,4.577,0,10.839v290.322
	C0,307.424,5.576,313,11.839,313h334.322c6.263,0,10.839-5.576,10.839-11.839V10.839C357,4.577,352.424,0,346.161,0L346.161,0z"/>
</svg>
