<svg id="6d29426d-a16d-4425-a8c7-8f16ab5b1174" data-name="圖層 1" xmlns="http://www.w3.org/2000/svg" xmlns:xlink="http://www.w3.org/1999/xlink" viewBox="0 0 209.99 36"><defs><style>.\35 fa1ece0-8974-42cd-945d-fd8af6abb514{fill:url(#7ca71de3-fd59-41f2-866d-528048a525a8);}.c0e31331-9659-4b04-a2c3-df1086fb837b{fill:url(#b94fc1f0-9242-4311-ab05-cfdce19c9a4a);}</style><linearGradient id="7ca71de3-fd59-41f2-866d-528048a525a8" x1="105" y1="36" x2="105" gradientUnits="userSpaceOnUse"><stop offset="0" stop-color="#d61619"/><stop offset="1" stop-color="#641115"/></linearGradient><linearGradient id="b94fc1f0-9242-4311-ab05-cfdce19c9a4a" x1="105" y1="3.6" x2="105" y2="32.4" xlink:href="#7ca71de3-fd59-41f2-866d-528048a525a8"/></defs><title>login_2</title><path class="5fa1ece0-8974-42cd-945d-fd8af6abb514" d="M210,18c0,9.94-6.71,18-15,18H15C6.72,36,0,27.94,0,18H0C0,8.06,6.72,0,15,0H195c8.29,0,15,8.06,15,18Z"/><path class="c0e31331-9659-4b04-a2c3-df1086fb837b" d="M207,18c0,8-5.37,14.4-12,14.4H15C8.37,32.4,3,26,3,18H3C3,10.05,8.37,3.6,15,3.6H195c6.63,0,12,6.45,12,14.4Z"/></svg>