<svg xmlns="http://www.w3.org/2000/svg" xmlns:xlink="http://www.w3.org/1999/xlink" viewBox="0 0 180 36"><defs><style>.\30 5b005f4-ecba-4df6-907d-53b181d49f34{isolation:isolate;}.e5a0741d-93be-46b1-9fa4-c19e49bcd638{fill:#402110;}.\34 446d08e-416d-463e-868d-391e3fbeeb53{fill:#fff;mix-blend-mode:multiply;}.c19f3989-9724-4384-8783-e0957e09c765{fill:url(#c1c02199-1a98-4d0a-8d4e-74069207a3a4);}.ed0f7b70-5fbe-4b72-a3e2-a8a40aa144a4{fill:url(#5a03a157-cde3-4b58-9166-6d41f6548f95);}</style><linearGradient id="c1c02199-1a98-4d0a-8d4e-74069207a3a4" x1="90" y1="36" x2="90" gradientUnits="userSpaceOnUse"><stop offset="0" stop-color="#c29c61"/><stop offset="1" stop-color="#c29c61" stop-opacity="0.3"/></linearGradient><linearGradient id="5a03a157-cde3-4b58-9166-6d41f6548f95" x1="90" y1="3" x2="90" y2="33" gradientUnits="userSpaceOnUse"><stop offset="0" stop-color="#c29c61"/><stop offset="0.06" stop-color="#c29c61" stop-opacity="0.86"/><stop offset="0.17" stop-color="#c29c61" stop-opacity="0.63"/><stop offset="0.29" stop-color="#c29c61" stop-opacity="0.44"/><stop offset="0.41" stop-color="#c29c61" stop-opacity="0.28"/><stop offset="0.54" stop-color="#c29c61" stop-opacity="0.16"/><stop offset="0.67" stop-color="#c29c61" stop-opacity="0.07"/><stop offset="0.82" stop-color="#c29c61" stop-opacity="0.02"/><stop offset="1" stop-color="#c29c61" stop-opacity="0"/></linearGradient></defs><title>register_now_btn</title><g class="05b005f4-ecba-4df6-907d-53b181d49f34"><g id="382e550b-9ace-4293-b076-f12dcd38c28b" data-name="圖層 1"><path class="e5a0741d-93be-46b1-9fa4-c19e49bcd638" d="M180,18a18,18,0,0,1-18,18H18A18,18,0,0,1,0,18H0A18,18,0,0,1,18,0H162a18,18,0,0,1,18,18Z"/><path class="4446d08e-416d-463e-868d-391e3fbeeb53" d="M180,18a18,18,0,0,1-18,18H18A18,18,0,0,1,0,18H0A18,18,0,0,1,18,0H162a18,18,0,0,1,18,18Z"/><path class="c19f3989-9724-4384-8783-e0957e09c765" d="M162,3a15,15,0,0,1,0,30H18A15,15,0,0,1,18,3H162m0-3H18a18,18,0,0,0,0,36H162a18,18,0,0,0,0-36Z"/><path class="ed0f7b70-5fbe-4b72-a3e2-a8a40aa144a4" d="M162,3H18a15,15,0,0,0,0,30H162a15,15,0,0,0,0-30Z"/></g></g></svg>