<svg id="圖層_1" data-name="圖層 1" xmlns="http://www.w3.org/2000/svg" xmlns:xlink="http://www.w3.org/1999/xlink" viewBox="0 0 157.5 37.5"><defs><style>.cls-1{fill:url(#linear-gradient);}.cls-2{opacity:0.7;fill:url(#linear-gradient-2);}.cls-3{fill:#c29b61;}</style><linearGradient id="linear-gradient" x1="78.75" x2="78.75" y2="37.5" gradientUnits="userSpaceOnUse"><stop offset="0" stop-color="#c29b61"/><stop offset="1" stop-color="#c29b61" stop-opacity="0"/></linearGradient><linearGradient id="linear-gradient-2" x1="78.75" y1="35" x2="78.75" y2="2.5" gradientUnits="userSpaceOnUse"><stop offset="0" stop-color="#c29b61" stop-opacity="0"/><stop offset="0.19" stop-color="#c29a60" stop-opacity="0.02"/><stop offset="0.34" stop-color="#c0995f" stop-opacity="0.08"/><stop offset="0.48" stop-color="#be965c" stop-opacity="0.17"/><stop offset="0.62" stop-color="#bb9258" stop-opacity="0.31"/><stop offset="0.74" stop-color="#b88d53" stop-opacity="0.49"/><stop offset="0.87" stop-color="#b3864d" stop-opacity="0.71"/><stop offset="0.98" stop-color="#ae7f46" stop-opacity="0.96"/><stop offset="1" stop-color="#ad7e45"/></linearGradient></defs><title>slots-btn-up</title><path class="cls-1" d="M152.5,2.5A2.5,2.5,0,0,1,155,5V32.5a2.5,2.5,0,0,1-2.5,2.5H5a2.5,2.5,0,0,1-2.5-2.5V5A2.5,2.5,0,0,1,5,2.5H152.5m0-2.5H5A5,5,0,0,0,0,5V32.5a5,5,0,0,0,5,5H152.5a5,5,0,0,0,5-5V5a5,5,0,0,0-5-5Z"/><rect class="cls-2" x="2.5" y="2.5" width="152.5" height="32.5" rx="2.5"/><polygon class="cls-3" points="88.75 2.49 68.75 2.49 78.75 12.49 88.75 2.49"/></svg>