<svg id="圖層_1" data-name="圖層 1" xmlns="http://www.w3.org/2000/svg" xmlns:xlink="http://www.w3.org/1999/xlink" viewBox="0 0 157.5 37.5"><defs><style>.cls-1{fill:url(#linear-gradient);}.cls-2{opacity:0.7;fill:url(#linear-gradient-2);}</style><linearGradient id="linear-gradient" x1="78.75" y1="37.5" x2="78.75" gradientUnits="userSpaceOnUse"><stop offset="0" stop-color="#fff"/><stop offset="1" stop-color="#fff" stop-opacity="0"/></linearGradient><linearGradient id="linear-gradient-2" x1="78.75" y1="2.5" x2="78.75" y2="35" gradientUnits="userSpaceOnUse"><stop offset="0" stop-color="#fff" stop-opacity="0"/><stop offset="0.16" stop-color="#fff" stop-opacity="0.01"/><stop offset="0.29" stop-color="#fff" stop-opacity="0.05"/><stop offset="0.41" stop-color="#fff" stop-opacity="0.12"/><stop offset="0.52" stop-color="#fff" stop-opacity="0.21"/><stop offset="0.63" stop-color="#fff" stop-opacity="0.33"/><stop offset="0.74" stop-color="#fff" stop-opacity="0.48"/><stop offset="0.84" stop-color="#fff" stop-opacity="0.66"/><stop offset="0.94" stop-color="#fff" stop-opacity="0.86"/><stop offset="1" stop-color="#fff"/></linearGradient></defs><title>slots-btn-out</title><path class="cls-1" d="M152.5,2.5A2.5,2.5,0,0,1,155,5V32.5a2.5,2.5,0,0,1-2.5,2.5H5a2.5,2.5,0,0,1-2.5-2.5V5A2.5,2.5,0,0,1,5,2.5H152.5m0-2.5H5A5,5,0,0,0,0,5V32.5a5,5,0,0,0,5,5H152.5a5,5,0,0,0,5-5V5a5,5,0,0,0-5-5Z"/><rect class="cls-2" x="2.5" y="2.5" width="152.5" height="32.5" rx="2.5"/></svg>