<svg id="01ea72de-2296-4842-bdf3-fa678e462387" data-name="圖層 1" xmlns="http://www.w3.org/2000/svg" xmlns:xlink="http://www.w3.org/1999/xlink" viewBox="0 0 60 24"><defs><style>.ea0f3a34-2876-4e59-9b32-58aa37af3224{fill:url(#c3d40e74-399c-42c8-89bc-5c378ef7c628);}.da7f2a3c-2938-48e6-87f3-6ec01e62e53b{opacity:0.7;}.\31 d8a485c-4670-4c0c-9a93-c4bbd4fb4b53{fill:url(#2d6ad591-aec0-441c-abbd-b6044fb83190);}</style><linearGradient id="c3d40e74-399c-42c8-89bc-5c378ef7c628" x1="30" y1="24" x2="30" gradientUnits="userSpaceOnUse"><stop offset="0" stop-color="#036eb7"/><stop offset="1" stop-color="#036eb7" stop-opacity="0.3"/></linearGradient><linearGradient id="2d6ad591-aec0-441c-abbd-b6044fb83190" x1="30" y1="22" x2="30" y2="2" gradientUnits="userSpaceOnUse"><stop offset="0" stop-color="#036eb7" stop-opacity="0"/><stop offset="0.19" stop-color="#036eb7" stop-opacity="0.02"/><stop offset="0.34" stop-color="#036eb7" stop-opacity="0.07"/><stop offset="0.47" stop-color="#036eb7" stop-opacity="0.16"/><stop offset="0.6" stop-color="#036eb7" stop-opacity="0.29"/><stop offset="0.73" stop-color="#036eb7" stop-opacity="0.46"/><stop offset="0.85" stop-color="#036eb7" stop-opacity="0.67"/><stop offset="0.96" stop-color="#036eb7" stop-opacity="0.91"/><stop offset="1" stop-color="#036eb7"/></linearGradient></defs><title>index_工作區域 1</title><path class="ea0f3a34-2876-4e59-9b32-58aa37af3224" d="M48,2a10,10,0,0,1,0,20H12A10,10,0,0,1,12,2H48m0-2H12a12,12,0,0,0,0,24H48A12,12,0,0,0,48,0Z"/><g class="da7f2a3c-2938-48e6-87f3-6ec01e62e53b"><path class="1d8a485c-4670-4c0c-9a93-c4bbd4fb4b53" d="M12,22H48A10,10,0,0,0,48,2H12a10,10,0,0,0,0,20Z"/></g></svg>