<?xml version="1.0" encoding="utf-8"?>
<!-- Generator: Adobe Illustrator 23.0.0, SVG Export Plug-In . SVG Version: 6.00 Build 0)  -->
<svg version="1.1" id="圖層_1" xmlns="http://www.w3.org/2000/svg" xmlns:xlink="http://www.w3.org/1999/xlink" x="0px" y="0px"
	 viewBox="0 0 85 85" style="enable-background:new 0 0 85 85;" xml:space="preserve">
<style type="text/css">
	.st0{fill:#C29C61;}
</style>
<g>
	<path class="st0" d="M42.5,0c11.7,0,22.4,4.8,30.1,12.4v0l0.1,0c7.6,7.7,12.4,18.3,12.4,30c0,11.7-4.8,22.3-12.5,30.1l0,0l-0.1,0.1
		C64.8,80.3,54.2,85,42.5,85c-11.7,0-22.4-4.8-30.1-12.5h0l-0.1-0.1C4.7,64.8,0,54.2,0,42.5c0-11.7,4.8-22.4,12.5-30l0,0l0,0
		C20.2,4.7,30.8,0,42.5,0L42.5,0z M68.3,16.7C61.7,10.1,52.6,6,42.5,6c-10.1,0-19.2,4.1-25.8,10.7C10.1,23.3,6,32.4,6,42.5
		c0,10.1,4.1,19.2,10.7,25.8C23.3,75,32.4,79,42.5,79c10.1,0,19.2-4.1,25.8-10.7C75,61.7,79,52.6,79,42.5C79,32.4,75,23.3,68.3,16.7
		L68.3,16.7z"/>
	<g>
		<path class="st0" d="M48.4,59.7c-4.4,4.1-5.9,4.9-6.3,5.1c0-0.1-0.1-0.2-0.1-0.4c0-1.4,0.8-5.7,4.6-18.4c2.5-8.5,2.9-10.4,2.9-11
			c0-1-0.4-1.8-1.1-2.4c-0.7-0.6-1.6-0.8-2.8-0.8c-1.9,0-4,0.7-6.6,2.2c-2.5,1.4-5.2,3.8-8.2,7L30,41.7l3.5,2.7l0.6-0.6
			c3.1-3,4.3-4,4.8-4.3c0.5-0.3,0.9-0.5,1.2-0.5c0,0.4-0.1,0.8-0.3,1.3c-4.4,14.4-6.6,23.2-6.6,27c0,1.4,0.4,2.5,1.2,3.3
			c0.8,0.8,1.9,1.3,3.2,1.3c1.4,0,3-0.6,5-1.7c1.9-1.1,4.8-3.5,8.9-7.3l0.8-0.7l-3.1-3.1L48.4,59.7z"/>
		<path class="st0" d="M53.4,14.4c-0.8-0.8-1.8-1.2-2.9-1.2c-1.4,0-2.7,0.6-3.7,1.7c-1,1.1-1.5,2.5-1.5,4c0,1.3,0.4,2.3,1.1,3.1
			c0.8,0.8,1.8,1.2,2.9,1.2c1.4,0,2.6-0.6,3.7-1.8c1.1-1.2,1.6-2.5,1.6-4.1C54.6,16.2,54.2,15.2,53.4,14.4z"/>
	</g>
</g>
</svg>
