<?xml version="1.0" encoding="utf-8"?>
<!-- Generator: Adobe Illustrator 23.0.0, SVG Export Plug-In . SVG Version: 6.00 Build 0)  -->
<svg version="1.1" id="圖層_1" xmlns="http://www.w3.org/2000/svg" xmlns:xlink="http://www.w3.org/1999/xlink" x="0px" y="0px"
	 viewBox="0 0 85 92.6" style="enable-background:new 0 0 85 92.6;" xml:space="preserve">
<style type="text/css">
	.st0{fill:#C29C61;}
</style>
<path class="st0" d="M3.5,28.1L3.5,28.1h78.1c1.9,0,3.5,1.5,3.5,3.5v0.1v15.7c0,1.9-1.5,3.5-3.5,3.5h-0.1h-0.3v38.2
	c0,1.9-1.6,3.5-3.5,3.5h-0.1H7.4c-1.9,0-3.5-1.6-3.5-3.5v-0.1V50.9H3.5c-1.9,0-3.5-1.5-3.5-3.5v-0.1V31.6C0,29.7,1.6,28.1,3.5,28.1
	L3.5,28.1z M49.3,85.7V50.9H35.8v34.8H49.3L49.3,85.7z M31.6,85.7V50.9H10.8v34.8H31.6L31.6,85.7z M53.5,50.9v34.8h20.7V50.9H53.5
	L53.5,50.9z M42.7,7.2c1.7,0,3.3,0.5,4.6,1.3c0.6-1.9,1.7-3.5,3-4.9C52.6,1.4,55.7,0,59.1,0c3.4,0,6.6,1.4,8.8,3.6
	c2.3,2.3,3.6,5.4,3.6,8.8c0,3.4-1.4,6.5-3.6,8.8c-2.2,2.3-5.4,3.6-8.8,3.6l0,0c-11.1,0-22.1,0-33.2,0l0,0c-3.4,0-6.5-1.4-8.8-3.6
	c-2.2-2.2-3.6-5.3-3.6-8.8s1.4-6.5,3.6-8.8C19.4,1.4,22.5,0,25.9,0s6.5,1.4,8.8,3.6c1.4,1.4,2.5,3.1,3.1,5.1
	C39.2,7.8,40.9,7.2,42.7,7.2L42.7,7.2z M46,12.8c-0.8-0.8-2-1.4-3.3-1.4c-1.3,0-2.5,0.6-3.3,1.4c-0.8,0.8-1.4,2-1.4,3.3
	c0,1.3,0.5,2.4,1.4,3.3c0.8,0.9,2,1.4,3.3,1.4c1.3,0,2.4-0.5,3.2-1.3l0.1-0.1c0.8-0.8,1.4-2,1.4-3.3C47.4,14.8,46.8,13.6,46,12.8
	L46,12.8z M50.9,12.7c0.4,1,0.7,2.2,0.7,3.4c0,1.7-0.5,3.3-1.3,4.6h8.9l0,0c2.3,0,4.4-0.9,5.8-2.4c1.5-1.5,2.4-3.5,2.4-5.8
	c0-2.3-0.9-4.3-2.4-5.8c-1.5-1.5-3.5-2.4-5.8-2.4c-2.3,0-4.4,0.9-5.8,2.4c-1.5,1.5-2.4,3.5-2.4,5.8L50.9,12.7L50.9,12.7z M35.2,20.7
	c-0.8-1.3-1.3-3-1.3-4.6c0-1,0.2-2,0.5-2.9c-0.1-0.2-0.1-0.5-0.1-0.8c0-2.3-0.9-4.3-2.4-5.8c-1.5-1.5-3.6-2.4-5.8-2.4
	s-4.4,0.9-5.8,2.4c-1.5,1.5-2.4,3.5-2.4,5.8c0,2.3,0.9,4.3,2.4,5.8c1.5,1.5,3.6,2.4,5.8,2.4l0,0L35.2,20.7L35.2,20.7z M78.1,35.1H7
	v8.8c25.5,0,45.5,0,71.1,0L78.1,35.1L78.1,35.1z"/>
</svg>
