<svg xmlns="http://www.w3.org/2000/svg" viewBox="0 0 97.4 97.45"><defs><style>.a{opacity:0.1;}.b{fill:#fff;}</style></defs><g class="a" transform="translate(0 0)"><path class="b" d="M137.2,261.9h8.1a4.033,4.033,0,0,1,4.05,4.05h8.15a12.216,12.216,0,0,0-12.2-12.2V249.7h-8.1v4.05a12.2,12.2,0,1,0,0,24.4h8.1a4.05,4.05,0,1,1,0,8.1h-8.1a4.033,4.033,0,0,1-4.05-4.05H125a12.217,12.217,0,0,0,12.2,12.2v4.05h8.1V294.4a12.2,12.2,0,0,0,0-24.4h-8.1a4.05,4.05,0,1,1,0-8.1Z" transform="translate(-92.5 -225.4)"/><path class="b" d="M145.6,232.7l5.6-9.35L135.25,207.4,125.9,213c-1.05-.5-2.1-.9-3.15-1.3l-2.65-10.6H97.5l-2.65,10.6c-1.1.4-2.15.85-3.2,1.3l-9.35-5.6-15.95,16,5.6,9.35c-.5,1.05-.9,2.1-1.3,3.15L60,238.5v22.6l10.6,2.65c.4,1.1.85,2.15,1.3,3.15l-5.6,9.4,15.95,15.95,9.35-5.6c1.05.5,2.1.9,3.15,1.3l2.65,10.6H120l2.65-10.6c1.1-.4,2.15-.85,3.15-1.3l9.35,5.65,15.95-15.95L145.5,267c.5-1.05.9-2.1,1.3-3.15l10.6-2.65V238.6l-10.6-2.65A19.077,19.077,0,0,0,145.6,232.7Zm3.8,22.05-8.85,2.2-.65,2.2a28.7,28.7,0,0,1-2.5,6l-1.1,2.05,4.7,7.85-7,7-7.8-4.7-2.05,1.1a35.282,35.282,0,0,1-6,2.5l-2.2.65-2.2,8.85h-9.9l-2.2-8.85-2.2-.65a32.868,32.868,0,0,1-6-2.45l-2.05-1.1-7.9,4.65-7-7,4.7-7.85-1.1-2.05a31.48,31.48,0,0,1-2.45-6l-.65-2.2-8.85-2.2v-9.9l8.85-2.2.65-2.2a31.649,31.649,0,0,1,2.5-6l1.1-2.05-4.75-7.85,7-7,7.8,4.7,2.05-1.1a35.282,35.282,0,0,1,6-2.5l2.2-.65,2.2-8.85h9.9l2.2,8.85,2.2.65a28.7,28.7,0,0,1,6,2.5l2.05,1.1,7.9-4.7,7,7-4.7,7.8,1.1,2.05a35.281,35.281,0,0,1,2.5,6l.65,2.2,8.85,2.2Z" transform="translate(-60 -201.1)"/></g></svg>