<svg id="home-btn" xmlns="http://www.w3.org/2000/svg" xmlns:xlink="http://www.w3.org/1999/xlink" viewBox="0 0 40 40">
  <defs>
    <style>
      .cls-1 {
        fill: url(#linear-gradient);
      }

      .cls-2 {
        opacity: 0.7;
        fill: url(#linear-gradient-2);
      }

      .cls-3 {
        fill: url(#linear-gradient-3);
      }

      .cls-4 {
        fill: #fff;
      }
    </style>
    <linearGradient id="linear-gradient" x1="0.5" y1="1" x2="0.5" gradientUnits="objectBoundingBox">
      <stop offset="0.015" stop-color="#5976ba"/>
      <stop offset="1" stop-color="#f19ec2"/>
    </linearGradient>
    <linearGradient id="linear-gradient-2" x1="1" y1="0.5" x2="0" y2="0.5" gradientUnits="objectBoundingBox">
      <stop offset="0" stop-color="#fff"/>
      <stop offset="1" stop-color="#fff" stop-opacity="0"/>
    </linearGradient>
    <linearGradient id="linear-gradient-3" x1="0.5" y1="1" x2="0.5" gradientUnits="objectBoundingBox">
      <stop offset="0" stop-color="gray"/>
      <stop offset="1" stop-color="#333"/>
    </linearGradient>
  </defs>
  <g id="组_59" data-name="组 59">
    <path id="路径_49" data-name="路径 49" class="cls-1" d="M35.344,40.262H5.678A4.92,4.92,0,0,1,.76,35.344V5.678A4.92,4.92,0,0,1,5.678.76H35.344a4.92,4.92,0,0,1,4.918,4.918V35.344A4.92,4.92,0,0,1,35.344,40.262Z" transform="translate(-0.511 -0.511)"/>
    <path id="路径_50" data-name="路径 50" class="cls-2" d="M40.262,9.013V8.177A7.4,7.4,0,0,0,32.855.77H8.167A7.4,7.4,0,0,0,.76,8.177v22A66.4,66.4,0,0,1,40.262,9.013Z" transform="translate(-0.511 -0.518)"/>
    <g id="组_58" data-name="组 58">
      <path id="路径_51" data-name="路径 51" class="cls-3" d="M35.082,1.311a3.609,3.609,0,0,1,3.607,3.607V35.082a3.609,3.609,0,0,1-3.607,3.607H4.918a3.609,3.609,0,0,1-3.607-3.607V4.918A3.609,3.609,0,0,1,4.918,1.311H35.082m0-1.311H4.918A4.92,4.92,0,0,0,0,4.918V35.082A4.92,4.92,0,0,0,4.918,40H35.082A4.92,4.92,0,0,0,40,35.082V4.918A4.92,4.92,0,0,0,35.082,0Z"/>
    </g>
  </g>
  <path id="路径_52" data-name="路径 52" class="cls-4" d="M12.96,33.63l1.81-1.81V45.25H39.987V31.82l1.81,1.81,1.98-1.98-16.4-16.4-7,7V20.03h-2.8v5.023l-6.593,6.6Zm24.226-4.613v13.43H17.573V29.017l9.807-9.807Z" transform="translate(-7.38 -10.25)"/>
</svg>
