<svg id="navbar-toggler-icon" xmlns="http://www.w3.org/2000/svg" xmlns:xlink="http://www.w3.org/1999/xlink" viewBox="0 0 40 40">
  <defs>
    <style>
      .cls-1 {
        fill: url(#linear-gradient);
      }

      .cls-2 {
        fill: url(#linear-gradient-2);
      }

      .cls-3 {
        fill: url(#linear-gradient-3);
      }

      .cls-4 {
        fill: url(#linear-gradient-4);
      }

      .cls-5 {
        fill: url(#linear-gradient-5);
      }
    </style>
    <linearGradient id="linear-gradient" x1="0.5" x2="0.5" y2="1" gradientUnits="objectBoundingBox">
      <stop offset="0" stop-color="gray"/>
      <stop offset="1" stop-color="#333"/>
    </linearGradient>
    <linearGradient id="linear-gradient-2" y1="1" y2="0" xlink:href="#linear-gradient"/>
    <linearGradient id="linear-gradient-3" y1="1" y2="0" xlink:href="#linear-gradient"/>
    <linearGradient id="linear-gradient-4" y1="1" y2="0" xlink:href="#linear-gradient"/>
    <linearGradient id="linear-gradient-5" y1="1" y2="0" xlink:href="#linear-gradient"/>
  </defs>
  <path id="路径_23" data-name="路径 23" class="cls-1" d="M34,40H6a6,6,0,0,1-6-6V6A6,6,0,0,1,6,0H34a6,6,0,0,1,6,6V34A6,6,0,0,1,34,40Z"/>
  <g id="组_38" data-name="组 38">
    <path id="路径_24" data-name="路径 24" class="cls-2" d="M34,1.6A4.4,4.4,0,0,1,38.4,6V34A4.4,4.4,0,0,1,34,38.4H6A4.4,4.4,0,0,1,1.6,34V6A4.4,4.4,0,0,1,6,1.6H34M34,0H6A6,6,0,0,0,0,6V34a6,6,0,0,0,6,6H34a6,6,0,0,0,6-6V6a6,6,0,0,0-6-6Z"/>
  </g>
  <g id="组_39" data-name="组 39" transform="translate(6.962 6.962)">
    <path id="路径_25" data-name="路径 25" class="cls-3" d="M45.6,49.635H23.338a1.908,1.908,0,1,1,0-3.815H45.6a1.908,1.908,0,1,1,0,3.815Z" transform="translate(-21.43 -34.69)"/>
    <path id="路径_26" data-name="路径 26" class="cls-4" d="M45.6,25.245H23.338a1.908,1.908,0,0,1,0-3.815H45.6a1.908,1.908,0,0,1,0,3.815Z" transform="translate(-21.43 -21.43)"/>
    <path id="路径_27" data-name="路径 27" class="cls-5" d="M45.6,74.025H23.338a1.908,1.908,0,1,1,0-3.815H45.6a1.908,1.908,0,1,1,0,3.815Z" transform="translate(-21.43 -47.95)"/>
  </g>
</svg>
