<svg xmlns="http://www.w3.org/2000/svg" width="46" height="40" viewBox="0 0 46 40">
  <path id="icon-msg" d="M124.848,805.19a2,2,0,0,0-2.127.272l-11.5,9.573L102.054,815h-.01a2,2,0,0,0-2,2L100,833a2,2,0,0,0,2,2h9.278l11.446,9.538A2.014,2.014,0,0,0,124,845a1.982,1.982,0,0,0,.851-.19A2.011,2.011,0,0,0,126.006,843V807a2.017,2.017,0,0,0-1.158-1.806m7.752,10a1.987,1.987,0,0,0-2.634.936,2.014,2.014,0,0,0,.91,2.668c.129.067,3.121,1.622,3.121,6.056,0,4.737-2.8,6.308-2.895,6.359A2,2,0,0,0,132,835a1.953,1.953,0,0,0,.89-.211c.206-.108,5.1-2.641,5.1-9.938,0-7.04-5.175-9.558-5.392-9.66m6.226-5.875a2,2,0,0,0-2.168,3.361c.217.144,5.339,3.637,5.339,12.323,0,8.708-4.911,12.2-5.107,12.339A2,2,0,0,0,138,841a2.034,2.034,0,0,0,1.108-.335c.277-.186,6.889-4.717,6.889-15.665-.006-10.974-6.88-15.505-7.173-15.689" transform="translate(-99.999 -805)" fill="#fff"/>
</svg>
