<svg id="logo" xmlns="http://www.w3.org/2000/svg" xmlns:xlink="http://www.w3.org/1999/xlink" width="160" height="71.854" viewBox="0 0 160 71.854">
  <defs>
    <linearGradient id="linear-gradient" x1="0.5" y1="1" x2="0.5" gradientUnits="objectBoundingBox">
      <stop offset="0" stop-color="#e1a55b"/>
      <stop offset="0.33" stop-color="#f3eeb5"/>
      <stop offset="0.66" stop-color="#e1a55b"/>
      <stop offset="1" stop-color="#906034"/>
    </linearGradient>
    <linearGradient id="linear-gradient-3" x1="0.5" y1="1" x2="0.5" gradientUnits="objectBoundingBox">
      <stop offset="0" stop-color="#f3eeb5"/>
      <stop offset="0.66" stop-color="#e1a55b"/>
      <stop offset="1" stop-color="#906034"/>
    </linearGradient>
  </defs>
  <g id="组_38" data-name="组 38" transform="translate(0.906 0.906)">
    <path id="路径_2" data-name="路径 2" d="M209.308,96.609l.7,1.409,2.517-6.288-1.645.939Z" transform="translate(-90.767 -87.324)" fill="#3f210f"/>
    <path id="路径_3" data-name="路径 3" d="M194.529,118.183l-6.92,5.031H174.147l.528.906h13.839l6.92-5.032,7.546-19.5L201.3,100.7Z" transform="translate(-83.735 -88.896)" fill="#3f210f"/>
    <path id="路径_4" data-name="路径 4" d="M115.514,140.118,90.5,154.95l.924.895,31.587-18.733Z" transform="translate(-67.007 -96.401)" fill="#3f210f"/>
    <path id="路径_5" data-name="路径 5" d="M186.362,134.182h-1.235L182.94,140.2H144.519l.33.906h39Z" transform="translate(-77.81 -95.815)" fill="#3f210f"/>
    <path id="路径_6" data-name="路径 6" d="M157.67,127.233H143.833l-6.147-4.47.133.344,6.92,5.032h13.837l4.214-7.224-.717-1.229Z" transform="translate(-76.443 -92.916)" fill="#3f210f"/>
    <path id="路径_7" data-name="路径 7" d="M186.67,148.492h-1.25l-1.674,4.42H167.259a1.152,1.152,0,0,0-.983.712l-3.43,9.058c-.149.393.05.714.442.714h.536l3.358-8.865a1.151,1.151,0,0,1,.983-.714h16.486Z" transform="translate(-81.465 -98.677)" fill="#3f210f"/>
    <path id="路径_8" data-name="路径 8" d="M217.667,152.912H201.134a1.152,1.152,0,0,0-.983.712l-3.43,9.058a.477.477,0,0,0,.443.714h.535l3.358-8.865a1.15,1.15,0,0,1,.982-.714h16.534l2.018-5.325h-1.25Z" transform="translate(-88.24 -98.677)" fill="#3f210f"/>
    <path id="路径_9" data-name="路径 9" d="M231.04,164.5h.535l3.358-8.865a1.152,1.152,0,0,1,.983-.714h11.469l.073-.193a.476.476,0,0,0-.443-.712h-12a1.15,1.15,0,0,0-.982.712l-3.43,9.058A.477.477,0,0,0,231.04,164.5Z" transform="translate(-95.015 -99.782)" fill="#3f210f"/>
    <path id="路径_10" data-name="路径 10" d="M178.787,162.781h-4.753l-.344.906h5.466l.074-.194C179.378,163.1,179.18,162.781,178.787,162.781Z" transform="translate(-83.644 -101.535)" fill="#3f210f"/>
    <path id="路径_11" data-name="路径 11" d="M182.588,159.573l-4.3,11.363H160.242a4.549,4.549,0,0,1-2.594-.724,4.067,4.067,0,0,0,3.5,1.63H179.19l4.648-12.269Z" transform="translate(-80.435 -100.893)" fill="#3f210f"/>
    <path id="路径_12" data-name="路径 12" d="M144.443,154.017h-13.43l-5.971,15.762h-4.077l-.343.906h5.325l5.971-15.763H144.1Z" transform="translate(-73.03 -99.782)" fill="#3f210f"/>
    <path id="路径_13" data-name="路径 13" d="M153.936,149.4a4.7,4.7,0,0,1,.251,4.409l-5.7,15.05h-4.077l-.343.906h5.326l5.7-15.05C155.962,152.414,155.436,150.418,153.936,149.4Z" transform="translate(-77.719 -98.858)" fill="#3f210f"/>
    <path id="路径_14" data-name="路径 14" d="M213.834,168.252l-1.675,4.42H194.117a4.549,4.549,0,0,1-2.594-.724,4.067,4.067,0,0,0,3.5,1.63h18.043l2.018-5.326h-1.249Z" transform="translate(-87.21 -102.629)" fill="#3f210f"/>
    <path id="路径_15" data-name="路径 15" d="M251.5,149.4a4.7,4.7,0,0,1,.251,4.409l-3.43,9.058c-1.264,3.335-4.991,6.038-8.326,6.038h-12a4.553,4.553,0,0,1-2.594-.724,4.07,4.07,0,0,0,3.5,1.63h12c3.334,0,7.062-2.7,8.326-6.038l3.431-9.057C253.529,152.414,253,150.418,251.5,149.4Z" transform="translate(-93.985 -98.858)" fill="#3f210f"/>
    <path id="路径_16" data-name="路径 16" d="M127.664,96.986l.435,1.088.285.188,1.77-3.539-1.057-.6Z" transform="translate(-74.439 -87.802)" fill="#3f210f"/>
    <path id="路径_17" data-name="路径 17" d="M122.256,148.492l-7.645,20.182h-4.077l-.343.906h5.325l7.989-21.088Z" transform="translate(-70.944 -98.677)" fill="#3f210f"/>
    <path id="路径_18" data-name="路径 18" d="M170.709,88.463l-2.426,3.031.816,1.018,2.516-3.145L169.1,86.223l-.091.113Z" transform="translate(-82.562 -86.223)" fill="#3f210f"/>
    <path id="路径_19" data-name="路径 19" d="M179.042,112.05l.286-.188L169.254,94.085l-.2.346Z" transform="translate(-82.717 -87.795)" fill="#3f210f"/>
    <path id="路径_20" data-name="路径 20" d="M87.242,169.879l-15.87-15.364-5.82,15.364H61.475l-.343.906h5.325l5.82-15.364,15.87,15.364H97.36l-.936-.906Z" transform="translate(-61.132 -99.881)" fill="#3f210f"/>
  </g>
  <path id="路径_21" data-name="路径 21" d="M212.9,150.409a.476.476,0,0,1,.443.713l-3.43,9.058a1.152,1.152,0,0,1-.983.713h-12a.476.476,0,0,1-.443-.713l3.43-9.058a1.151,1.151,0,0,1,.982-.713h12m2.018-5.326h-12c-3.335,0-7.062,2.7-8.325,6.038l-3.431,9.058c-1.263,3.335.416,6.038,3.75,6.038h12c3.335,0,7.062-2.7,8.326-6.038l3.43-9.058c1.263-3.335-.416-6.038-3.751-6.038ZM173.8,150.409h16.533l2.018-5.326H175.817c-3.334,0-7.062,2.7-8.325,6.038l-3.43,9.058c-1.264,3.335.415,6.038,3.75,6.038h18.042l2.018-5.325H169.83a.476.476,0,0,1-.443-.713l3.43-9.058A1.153,1.153,0,0,1,173.8,150.409Zm-22.438,3.539-1.315,3.472h6c.394,0,.591.32.442.713l-.775,2.046a1.15,1.15,0,0,1-.982.713h-12c-.393,0-.591-.32-.442-.713l3.43-9.058a1.153,1.153,0,0,1,.983-.713h16.487l2.017-5.326H148.718c-3.335,0-7.062,2.7-8.325,6.038l-3.431,9.058c-1.263,3.335.416,6.038,3.75,6.038h18.042l4.647-12.269Zm-17.739-8.865H115.58l-7.989,21.088h5.326l5.971-15.762h13.43l-5.971,15.762h5.326l5.7-15.05C138.637,147.786,136.958,145.083,133.622,145.083Zm-21.062,0h-5.326l-7.988,21.088h5.326Zm3.449-9.1L79.963,150.425,69.721,140.51,60,166.171h5.326l5.82-15.363,15.87,15.363h9.214L84.4,154.724Z" transform="translate(-60 -95.269)" fill="url(#linear-gradient)"/>
  <path id="路径_22" data-name="路径 22" d="M178.863,130.377h-39l-2.516-6.92h44.03ZM124.14,89.5l2.516,6.289,1.887-3.773Zm45.918,20.754h0l-10.694-18.87-10.692,18.87L126.656,95.785l7.548,19.5,6.919,5.032H154.96l4.4-7.548,4.4,7.548h13.839l6.92-5.032,7.546-19.5Zm20.129-18.238,1.886,3.773L194.59,89.5Zm-30.823-6.921-2.516,3.146,2.516,3.144,2.516-3.144Z" transform="translate(-72.828 -85.091)" fill="url(#linear-gradient)"/>
  <g id="组_39" data-name="组 39" transform="translate(0 56.018)">
    <path id="路径_23" data-name="路径 23" d="M197.834,157.855c-1.874.584-3.722,1.177-5.951,1.65l-1.911,5.047c-1.264,3.335.415,6.039,3.75,6.039h18.042l2.018-5.326H195.74a.477.477,0,0,1-.443-.714Z" transform="translate(-85.91 -155.662)" fill="url(#linear-gradient-3)"/>
    <path id="路径_24" data-name="路径 24" d="M163.4,159.339c-1.747-.411-3.274-.89-4.806-1.369l-2.5,6.606c-1.263,3.335.416,6.039,3.75,6.039H177.89l3.993-10.54a55.941,55.941,0,0,1-7.2.421c-1.842,0-3.462-.069-4.928-.186l-.571,1.507h6c.394,0,.591.32.442.713l-.775,2.046a1.149,1.149,0,0,1-.982.714h-12c-.393,0-.591-.32-.442-.714Z" transform="translate(-79.135 -155.685)" fill="url(#linear-gradient-3)"/>
    <path id="路径_25" data-name="路径 25" d="M70.614,156.059a40.928,40.928,0,0,0-5.014-.822L60,170.022h5.326Z" transform="translate(-60 -155.139)" fill="url(#linear-gradient-3)"/>
    <path id="路径_26" data-name="路径 26" d="M142.934,170.094h5.326l5.081-13.414a41.488,41.488,0,0,0-4.914-1.082Z" transform="translate(-76.587 -155.211)" fill="url(#linear-gradient-3)"/>
    <path id="路径_27" data-name="路径 27" d="M244.344,159.456l-1.741,4.6a1.151,1.151,0,0,1-.983.714h-12a.477.477,0,0,1-.443-.714l2.945-7.775a40.369,40.369,0,0,0-4.976-.921l-3.294,8.7c-1.263,3.335.416,6.039,3.75,6.039h12c3.335,0,7.062-2.7,8.326-6.039l1.566-4.134A49.165,49.165,0,0,1,244.344,159.456Z" transform="translate(-92.685 -155.163)" fill="url(#linear-gradient-3)"/>
    <path id="路径_28" data-name="路径 28" d="M90.348,170.406h9.214l-10.7-10.358c-5.386-.551-8.506-1.812-12.2-2.892Z" transform="translate(-63.332 -155.522)" fill="url(#linear-gradient-3)"/>
    <path id="路径_29" data-name="路径 29" d="M130.452,155.114a42.061,42.061,0,0,0-5.636.821L119.489,170h5.326Z" transform="translate(-71.898 -155.114)" fill="url(#linear-gradient-3)"/>
    <path id="路径_30" data-name="路径 30" d="M119.383,157.225c-2,.592-3.851,1.233-6,1.779l-4.325,11.415h5.326Z" transform="translate(-69.812 -155.536)" fill="url(#linear-gradient-3)"/>
  </g>
  <path id="路径_31" data-name="路径 31" d="M136.091,120.943l-2.513-6.49a27.689,27.689,0,0,0,9.936,1.713,26.142,26.142,0,0,0,6.4-.678l.645.424.4-.7c2.806-.8,4.925-1.818,10.3-1.818s7.493,1.017,10.3,1.818l.4.7.643-.422a26.235,26.235,0,0,0,6.4.677,27.716,27.716,0,0,0,9.938-1.714l-2.512,6.491-6.921,5.032H165.655l-4.4-7.548-4.4,7.548H143.01Zm3.146,8.175,2.516,6.92h39l2.516-6.92Z" transform="translate(-74.716 -90.752)" fill="url(#linear-gradient-3)"/>
  <g id="组_40" data-name="组 40" transform="translate(0 0.046)" opacity="0.5">
    <path id="路径_32" data-name="路径 32" d="M172.753,127.516h.378l-3.875-6.641-.189.323Z" transform="translate(-81.813 -92.294)" fill="#fff"/>
    <path id="路径_33" data-name="路径 33" d="M143.745,140.026l-2.187-6.014h42.795l.329-.906h-44.03l2.516,6.92Z" transform="translate(-76.131 -94.74)" fill="#fff"/>
    <path id="路径_34" data-name="路径 34" d="M208.786,96.439l-1.181-2.364,2.758-1.577.739-1.845-4.4,2.516,1.886,3.773Z" transform="translate(-89.34 -86.249)" fill="#fff"/>
    <path id="路径_35" data-name="路径 35" d="M182.515,113.887l20.33-13.359.779-2.013L181.9,112.793Z" transform="translate(-84.379 -87.822)" fill="#fff"/>
    <path id="路径_36" data-name="路径 36" d="M126.959,96.339l-1.913-4.779,3.346,1.912.151-.3-4.4-2.516,2.516,6.289Z" transform="translate(-72.828 -86.249)" fill="#fff"/>
    <path id="路径_37" data-name="路径 37" d="M173.873,158.5l-1.315,3.472h1.249l.972-2.566H185.57l.343-.906Z" transform="translate(-82.512 -99.818)" fill="#fff"/>
    <path id="路径_38" data-name="路径 38" d="M215.387,167.177H197.925l-.073.192c-.149.394.05.714.443.714H215.09l.342-.906Z" transform="translate(-87.561 -101.554)" fill="#fff"/>
    <path id="路径_39" data-name="路径 39" d="M165.931,89.2l2.425-3.032-.815-1.019-2.516,3.145,2.516,3.144.09-.113Z" transform="translate(-81.005 -85.148)" fill="#fff"/>
    <path id="路径_40" data-name="路径 40" d="M232.172,165.689h12a1.151,1.151,0,0,0,.982-.714l3.431-9.057a.476.476,0,0,0-.443-.712h-.536l-3.358,8.864a1.152,1.152,0,0,1-.983.713H231.8l-.073.192C231.58,165.368,231.779,165.689,232.172,165.689Z" transform="translate(-94.336 -99.16)" fill="#fff"/>
    <path id="路径_41" data-name="路径 41" d="M163.978,166.728c-.148.394.05.714.442.714h12a1.152,1.152,0,0,0,.983-.714l.774-2.046c.15-.393-.049-.712-.442-.712H177.2l-.7,1.853a1.15,1.15,0,0,1-.982.713H164.051Z" transform="translate(-80.786 -100.913)" fill="#fff"/>
    <path id="路径_42" data-name="路径 42" d="M157,163.417l3.431-9.057c1.263-3.334,4.99-6.038,8.326-6.038H184l.343-.906H167.853c-3.335,0-7.062,2.7-8.325,6.038l-3.431,9.058c-.87,2.3-.344,4.294,1.157,5.314A4.7,4.7,0,0,1,157,163.417Z" transform="translate(-79.135 -97.602)" fill="#fff"/>
    <path id="路径_43" data-name="路径 43" d="M190.877,163.417l3.43-9.057c1.264-3.334,4.99-6.038,8.326-6.038h15.284l.343-.906H201.727c-3.334,0-7.062,2.7-8.325,6.038l-3.43,9.058c-.871,2.3-.345,4.294,1.157,5.314A4.7,4.7,0,0,1,190.877,163.417Z" transform="translate(-85.91 -97.602)" fill="#fff"/>
    <path id="路径_44" data-name="路径 44" d="M128.383,148.323h18.043a4.551,4.551,0,0,1,2.594.724,4.066,4.066,0,0,0-3.5-1.63H127.478L119.489,168.5h1.249Z" transform="translate(-71.898 -97.602)" fill="#fff"/>
    <path id="路径_45" data-name="路径 45" d="M149.811,155.206h-1.249l-5.628,14.857h1.249Z" transform="translate(-76.587 -99.16)" fill="#fff"/>
    <path id="路径_46" data-name="路径 46" d="M160.93,94.262l-.71-1.252-10.693,18.87L128.535,98.086l-.117.233,22.015,14.467Z" transform="translate(-73.684 -86.721)" fill="#fff"/>
    <path id="路径_47" data-name="路径 47" d="M224.752,163.417l3.431-9.057c1.264-3.334,4.99-6.038,8.326-6.038h12a4.557,4.557,0,0,1,2.594.723,4.069,4.069,0,0,0-3.5-1.629h-12c-3.335,0-7.062,2.7-8.325,6.038l-3.431,9.058c-.87,2.3-.344,4.294,1.157,5.314A4.7,4.7,0,0,1,224.752,163.417Z" transform="translate(-92.685 -97.602)" fill="#fff"/>
    <path id="路径_48" data-name="路径 48" d="M135.606,118.575,128.192,99.42,128.023,99l-.737-.484,7.548,19.5Z" transform="translate(-73.457 -87.822)" fill="#fff"/>
    <path id="路径_49" data-name="路径 49" d="M117.953,148.322h4.077l.343-.906h-5.325L109.059,168.5h1.249Z" transform="translate(-69.812 -97.602)" fill="#fff"/>
    <path id="路径_50" data-name="路径 50" d="M102.526,171.138h.03l-10.9-10.553-.018.011Z" transform="translate(-66.327 -100.236)" fill="#fff"/>
    <path id="路径_51" data-name="路径 51" d="M70.627,141.472l10.242,9.915,28.545-11.439,6.6-3.912L79.963,150.482l-10.242-9.915L60,166.228h1.249Z" transform="translate(-60 -95.326)" fill="#fff"/>
  </g>
</svg>
