<?xml version="1.0" encoding="utf-8"?>
<!-- Generator: Adobe Illustrator 22.1.0, SVG Export Plug-In . SVG Version: 6.00 Build 0)  -->
<svg version="1.1" id="圖層_1" xmlns="http://www.w3.org/2000/svg" xmlns:xlink="http://www.w3.org/1999/xlink" x="0px" y="0px"
	 viewBox="0 0 960 560" style="enable-background:new 0 0 960 560;" xml:space="preserve">
<style type="text/css">
	.st0{fill:#C29C61;}
</style>
<path class="st0" d="M585,271.2v30.6c0,7.2-5.9,13.1-13.1,13.1H455c-7.2,0-13.1-5.9-13.1-13.1v-30.6c0-7.2,5.9-13.1,13.1-13.1h116.9
	C579.1,258.1,585,264,585,271.2z M571.9,350H455c-7.2,0-13.1,5.9-13.1,13.1v30.6c0,7.2,5.9,13.1,13.1,13.1h116.9
	c7.2,0,13.1-5.9,13.1-13.1v-30.6C585,355.9,579.1,350,571.9,350z M690,144.3v363.2c0,29-23.5,52.5-52.5,52.5h-315
	c-29,0-52.5-23.5-52.5-52.5v-455c0-29,23.5-52.5,52.5-52.5h223.2c13.9,0,27.2,5.6,37.1,15.4l91.8,91.8
	C684.4,116.9,690,130.4,690,144.3z M550,56.8V140h83.2L550,56.8z M637.5,507.5v-315H523.8c-14.5,0-26.2-11.7-26.2-26.2V52.5h-175
	v455H637.5z"/>
<path class="st0" d="M431.9,302.4c0,6.9-5.6,12.5-12.5,12.5h-31.9c-6.9,0-12.5-5.6-12.5-12.5v-31.9c0-6.9,5.6-12.5,12.5-12.5h31.9
	c6.9,0,12.5,5.6,12.5,12.5V302.4z"/>
<path class="st0" d="M431.9,394.4c0,6.9-5.6,12.5-12.5,12.5h-31.9c-6.9,0-12.5-5.6-12.5-12.5v-31.9c0-6.9,5.6-12.5,12.5-12.5h31.9
	c6.9,0,12.5,5.6,12.5,12.5V394.4z"/>
<g>
	<path class="st0" d="M431.9,210.5c0,6.9-5.6,12.5-12.5,12.5h-31.9c-6.9,0-12.5-5.6-12.5-12.5v-31.9c0-6.9,5.6-12.5,12.5-12.5h31.9
		c6.9,0,12.5,5.6,12.5,12.5V210.5z"/>
</g>
</svg>
