<?xml version="1.0" encoding="utf-8"?>
<!-- Generator: Adobe Illustrator 16.0.0, SVG Export Plug-In . SVG Version: 6.00 Build 0)  -->
<!DOCTYPE svg PUBLIC "-//W3C//DTD SVG 1.1//EN" "http://www.w3.org/Graphics/SVG/1.1/DTD/svg11.dtd">
<svg version="1.1" id="圖層_1" xmlns="http://www.w3.org/2000/svg" xmlns:xlink="http://www.w3.org/1999/xlink" x="0px" y="0px"
	 width="595.281px" height="841.891px" viewBox="0 0 595.281 841.891" enable-background="new 0 0 595.281 841.891"
	 xml:space="preserve">
<path fill="#FFFFFF" d="M446.46,408.544v43.405c0,10.23-8.371,18.604-18.604,18.604H167.422c-10.231,0-18.602-8.372-18.602-18.604
	v-43.405c0-10.231,8.371-18.604,18.602-18.604h260.436C438.089,389.941,446.46,398.312,446.46,408.544z M427.857,520.158H167.422
	c-10.231,0-18.602,8.371-18.602,18.604v43.405c0,10.23,8.371,18.603,18.602,18.603h260.436c10.231,0,18.604-8.371,18.604-18.603
	v-43.405C446.46,528.53,438.089,520.158,427.857,520.158z M595.281,228.564v514.824c0,41.081-33.33,74.41-74.41,74.41H74.41
	C33.33,817.799,0,784.469,0,743.388V98.502c0-41.081,33.33-74.41,74.41-74.41h316.397c19.688,0,38.601,7.906,52.552,21.858
	l130.063,130.063C587.375,189.809,595.281,208.877,595.281,228.564z M396.853,104.548v117.971h117.972L396.853,104.548
	L396.853,104.548z M520.871,743.388v-446.46H359.648c-20.617,0-37.205-16.587-37.205-37.205V98.502H74.41v644.887L520.871,743.388
	L520.871,743.388z"/>
</svg>
