<?xml version="1.0" encoding="utf-8"?>
<!-- Generator: Adobe Illustrator 23.0.0, SVG Export Plug-In . SVG Version: 6.00 Build 0)  -->
<svg version="1.1" id="圖層_1" xmlns="http://www.w3.org/2000/svg" xmlns:xlink="http://www.w3.org/1999/xlink" x="0px" y="0px"
	 viewBox="0 0 576.7 576.7" style="enable-background:new 0 0 576.7 576.7;" xml:space="preserve">
<style type="text/css">
	.st0{fill:#FFC107;}
</style>
<path class="st0" d="M288.3,0C129.1,0,0,129.1,0,288.3s129.1,288.3,288.3,288.3s288.3-129.1,288.3-288.3
	C576.7,129.1,447.6,0,288.3,0z M288.3,55.8c128.5,0,232.5,104,232.5,232.5s-104,232.5-232.5,232.5S55.8,416.8,55.8,288.3
	C55.8,159.8,159.8,55.8,288.3,55.8 M451.3,207.3l-26.2-26.4c-5.4-5.5-14.3-5.5-19.7-0.1l-164.3,163l-69.5-70.1
	c-5.4-5.5-14.3-5.5-19.7-0.1l-26.4,26.2c-5.5,5.4-5.5,14.3-0.1,19.7L230.9,426c5.4,5.5,14.3,5.5,19.7,0.1L451.3,227
	C456.7,221.6,456.8,212.7,451.3,207.3L451.3,207.3z"/>
</svg>
