<?xml version="1.0" encoding="utf-8"?>
<!-- Generator: Adobe Illustrator 16.0.0, SVG Export Plug-In . SVG Version: 6.00 Build 0)  -->
<!DOCTYPE svg PUBLIC "-//W3C//DTD SVG 1.1//EN" "http://www.w3.org/Graphics/SVG/1.1/DTD/svg11.dtd">
<svg version="1.1" id="圖層_1" xmlns="http://www.w3.org/2000/svg" xmlns:xlink="http://www.w3.org/1999/xlink" x="0px" y="0px"
	 width="595.281px" height="841.891px" viewBox="0 0 595.281 841.891" enable-background="new 0 0 595.281 841.891"
	 xml:space="preserve">
<path fill="#FFFFFF" d="M281.883,298.716l54.712,15.647c3.939,1.095,6.676,4.814,6.676,8.863c0,5.033-4.157,9.191-9.19,9.191
	h-35.894c-3.938,0-7.769-0.875-11.271-2.407c-5.252-2.407-11.38-1.86-15.429,2.188l-19.15,19.148
	c-5.799,5.8-5.143,15.648,1.642,20.135c10.396,6.895,22.213,11.054,34.797,12.584v19.369c0,9.629,7.879,17.508,17.508,17.508h17.508
	c9.631,0,17.51-7.879,17.51-17.508v-19.26c33.156-3.939,58.324-33.922,53.947-68.938c-3.174-25.168-22.652-45.192-46.945-52.195
	l-54.713-15.648c-3.939-1.094-6.675-4.813-6.675-8.863c0-5.032,4.158-9.19,9.192-9.19H332c3.939,0,7.77,0.875,11.271,2.407
	c5.253,2.406,11.382,1.859,15.431-2.188l19.147-19.148c5.802-5.801,5.146-15.648-1.641-20.136
	c-10.396-6.895-22.213-11.053-34.797-12.584v-19.369c0-9.629-7.879-17.508-17.51-17.508h-17.509
	c-9.628,0-17.508,7.879-17.508,17.508v19.261c-33.156,3.938-58.325,33.922-53.947,68.938
	C238.112,271.687,257.59,291.713,281.883,298.716z M584.228,499.842c-12.256-11.708-31.186-10.942-44.1,0l-95.42,80.866
	c-11.707,9.957-26.262,15.319-41.363,15.319H281.117c-9.083,0-16.523-7.879-16.523-17.509c0-9.629,7.441-17.508,16.523-17.508
	h80.867c16.522,0,31.731-11.928,34.358-29.107c3.394-21.886-12.584-40.926-32.608-40.926H198.39
	c-27.904,0-54.932,10.177-76.489,28.779l-48.039,41.254H16.523C7.441,561.011,0,568.89,0,578.519v105.05
	c0,9.63,7.441,17.508,16.523,17.508h368.658c14.992,0,29.545-5.36,41.363-15.318l156.262-132.406
	C598.564,540.111,599.767,514.723,584.228,499.842L584.228,499.842z"/>
</svg>
