<svg id="圖層_1" data-name="圖層 1" xmlns="http://www.w3.org/2000/svg" xmlns:xlink="http://www.w3.org/1999/xlink" viewBox="0 0 171 150"><defs><style>.cls-1{fill:url(#linear-gradient);}</style><linearGradient id="linear-gradient" x1="85.5" y1="150" x2="85.5" gradientUnits="userSpaceOnUse"><stop offset="0" stop-color="#c79f62"/><stop offset="1" stop-color="#231815" stop-opacity="0.7"/></linearGradient></defs><title>index-gamelist-box</title><path class="cls-1" d="M158.52,0h-146A12.49,12.49,0,0,0,0,12.5v125A12.49,12.49,0,0,0,12.48,150h146A12.49,12.49,0,0,0,171,137.5V12.5A12.49,12.49,0,0,0,158.52,0Zm10,137.5a10,10,0,0,1-10,10h-146a10,10,0,0,1-10-10V12.5a10,10,0,0,1,10-10H25.59a5,5,0,0,1,5,5v0h0V20a5,5,0,0,0,5,5h99.86a5,5,0,0,0,5-5V7.5h0v0a5,5,0,0,1,5-5h13.11a10,10,0,0,1,10,10Z"/></svg>