<svg id="圖層_1" data-name="圖層 1" xmlns="http://www.w3.org/2000/svg" xmlns:xlink="http://www.w3.org/1999/xlink" viewBox="0 0 112 97.07"><defs><style>.cls-1{fill:url(#linear-gradient);}.cls-2{fill:url(#linear-gradient-2);}</style><linearGradient id="linear-gradient" x1="56" y1="87.11" x2="56" gradientUnits="userSpaceOnUse"><stop offset="0" stop-color="#fff" stop-opacity="0"/><stop offset="0.16" stop-color="#fff" stop-opacity="0.01"/><stop offset="0.29" stop-color="#fff" stop-opacity="0.05"/><stop offset="0.41" stop-color="#fff" stop-opacity="0.12"/><stop offset="0.52" stop-color="#fff" stop-opacity="0.21"/><stop offset="0.63" stop-color="#fff" stop-opacity="0.33"/><stop offset="0.74" stop-color="#fff" stop-opacity="0.48"/><stop offset="0.84" stop-color="#fff" stop-opacity="0.66"/><stop offset="0.94" stop-color="#fff" stop-opacity="0.86"/><stop offset="1" stop-color="#fff"/></linearGradient><linearGradient id="linear-gradient-2" x1="56" y1="84.62" x2="56" y2="2.49" gradientUnits="userSpaceOnUse"><stop offset="0" stop-color="#fff" stop-opacity="0"/><stop offset="0.19" stop-color="#fff" stop-opacity="0.01"/><stop offset="0.34" stop-color="#fff" stop-opacity="0.05"/><stop offset="0.48" stop-color="#fff" stop-opacity="0.12"/><stop offset="0.61" stop-color="#fff" stop-opacity="0.21"/><stop offset="0.73" stop-color="#fff" stop-opacity="0.33"/><stop offset="0.86" stop-color="#fff" stop-opacity="0.48"/><stop offset="0.97" stop-color="#fff" stop-opacity="0.65"/><stop offset="1" stop-color="#fff" stop-opacity="0.7"/></linearGradient></defs><title>index-menubar-out</title><path class="cls-1" d="M105.78,2.49a3.73,3.73,0,0,1,3.73,3.73V80.89a3.73,3.73,0,0,1-3.73,3.73H6.22a3.73,3.73,0,0,1-3.73-3.73V6.22A3.73,3.73,0,0,1,6.22,2.49h99.56m0-2.49H6.22A6.22,6.22,0,0,0,0,6.22V80.89a6.21,6.21,0,0,0,6.22,6.22h99.56A6.22,6.22,0,0,0,112,80.89V6.22A6.23,6.23,0,0,0,105.78,0Z"/><rect class="cls-2" x="2.49" y="2.49" width="107.02" height="82.13" rx="3.73"/></svg>