<svg id="圖層_1" data-name="圖層 1" xmlns="http://www.w3.org/2000/svg" xmlns:xlink="http://www.w3.org/1999/xlink" viewBox="0 0 179 35.8"><defs><style>.cls-1{fill:url(#linear-gradient);}.cls-2{fill:url(#linear-gradient-2);}</style><linearGradient id="linear-gradient" x1="89.5" y1="35.8" x2="89.5" gradientUnits="userSpaceOnUse"><stop offset="0" stop-color="#c79f62"/><stop offset="1" stop-color="#c79f62" stop-opacity="0.3"/></linearGradient><linearGradient id="linear-gradient-2" x1="89.5" y1="2.98" x2="89.5" y2="32.82" gradientUnits="userSpaceOnUse"><stop offset="0" stop-color="#c79f62"/><stop offset="0.07" stop-color="#c79f62" stop-opacity="0.84"/><stop offset="0.18" stop-color="#c79f62" stop-opacity="0.62"/><stop offset="0.3" stop-color="#c79f62" stop-opacity="0.43"/><stop offset="0.42" stop-color="#c79f62" stop-opacity="0.27"/><stop offset="0.54" stop-color="#c79f62" stop-opacity="0.15"/><stop offset="0.68" stop-color="#c79f62" stop-opacity="0.07"/><stop offset="0.82" stop-color="#c79f62" stop-opacity="0.02"/><stop offset="1" stop-color="#c79f62" stop-opacity="0"/></linearGradient></defs><title>index-more</title><path class="cls-1" d="M161.1,3a14.92,14.92,0,1,1,0,29.84H17.9A14.92,14.92,0,0,1,17.9,3H161.1m0-3H17.9a17.9,17.9,0,0,0,0,35.8H161.1a17.9,17.9,0,1,0,0-35.8Z"/><path class="cls-2" d="M161.1,3H17.9a14.92,14.92,0,0,0,0,29.84H161.1A14.92,14.92,0,1,0,161.1,3Z"/></svg>