<?xml version="1.0" encoding="utf-8"?>
<!-- Generator: Adobe Illustrator 16.0.0, SVG Export Plug-In . SVG Version: 6.00 Build 0)  -->
<!DOCTYPE svg PUBLIC "-//W3C//DTD SVG 1.1//EN" "http://www.w3.org/Graphics/SVG/1.1/DTD/svg11.dtd">
<svg version="1.1" id="圖層_1" xmlns="http://www.w3.org/2000/svg" xmlns:xlink="http://www.w3.org/1999/xlink" x="0px" y="0px"
	 width="106.25px" height="30px" viewBox="0 0 106.25 30" enable-background="new 0 0 106.25 30" xml:space="preserve">
<g>
	<linearGradient id="SVGID_1_" gradientUnits="userSpaceOnUse" x1="53.1255" y1="30" x2="53.1255" y2="4.882813e-004">
		<stop  offset="0" style="stop-color:#FFFFFF"/>
		<stop  offset="1" style="stop-color:#FFFFFF;stop-opacity:0"/>
	</linearGradient>
	<path fill="url(#SVGID_1_)" d="M91.25,2.5c6.893,0,12.5,5.607,12.5,12.5c0,6.892-5.607,12.5-12.5,12.5H15
		C8.108,27.5,2.5,21.892,2.5,15C2.5,8.107,8.108,2.5,15,2.5H91.25 M91.25,0H15C6.717,0,0,6.716,0,15c0,8.283,6.717,15,15,15h76.25
		c8.284,0,15-6.717,15-15C106.25,6.716,99.534,0,91.25,0L91.25,0z"/>
	<linearGradient id="SVGID_2_" gradientUnits="userSpaceOnUse" x1="53.1245" y1="2.5" x2="53.1245" y2="27.5005">
		<stop  offset="0" style="stop-color:#FFFFFF"/>
		<stop  offset="0.0896" style="stop-color:#FFFFFF;stop-opacity:0.9104"/>
		<stop  offset="1" style="stop-color:#FFFFFF;stop-opacity:0"/>
	</linearGradient>
	<path opacity="0.7" fill="url(#SVGID_2_)" d="M91.25,2.5H15C8.108,2.5,2.5,8.107,2.5,15c0,6.892,5.608,12.5,12.5,12.5h76.25
		c6.893,0,12.5-5.608,12.5-12.5C103.75,8.107,98.143,2.5,91.25,2.5z"/>
</g>
</svg>
