<svg id="ff6df2a1-059f-49c0-92bb-af7f87be18ad" data-name="圖層 1" xmlns="http://www.w3.org/2000/svg" xmlns:xlink="http://www.w3.org/1999/xlink" viewBox="0 0 60 24"><defs><style>.\39 fa4ae14-3d21-4ab0-bd4b-53e5a6a5c05b{fill:url(#dd6732a0-0569-46c6-ac7a-7ac99f0d087d);}.\30 3646b99-5700-47fe-bafc-5bb5c0882958{fill:url(#ab03748b-13ee-45ab-9724-35331a509ac6);}</style><linearGradient id="dd6732a0-0569-46c6-ac7a-7ac99f0d087d" x1="30" y1="24" x2="30" gradientUnits="userSpaceOnUse"><stop offset="0" stop-color="#f29600"/><stop offset="1" stop-color="#f29600" stop-opacity="0.3"/></linearGradient><linearGradient id="ab03748b-13ee-45ab-9724-35331a509ac6" x1="30" y1="22" x2="30" y2="2" gradientUnits="userSpaceOnUse"><stop offset="0" stop-color="#f29600" stop-opacity="0"/><stop offset="0.17" stop-color="#f29600" stop-opacity="0.01"/><stop offset="0.3" stop-color="#f29600" stop-opacity="0.05"/><stop offset="0.42" stop-color="#f29600" stop-opacity="0.12"/><stop offset="0.54" stop-color="#f29600" stop-opacity="0.22"/><stop offset="0.65" stop-color="#f29600" stop-opacity="0.35"/><stop offset="0.75" stop-color="#f29600" stop-opacity="0.51"/><stop offset="0.86" stop-color="#f29600" stop-opacity="0.69"/><stop offset="0.96" stop-color="#f29600" stop-opacity="0.9"/><stop offset="1" stop-color="#f29600"/></linearGradient></defs><title>index_工作區域 1</title><path class="9fa4ae14-3d21-4ab0-bd4b-53e5a6a5c05b" d="M48,2a10,10,0,0,1,0,20H12A10,10,0,0,1,12,2H48m0-2H12a12,12,0,0,0,0,24H48A12,12,0,0,0,48,0Z"/><path class="03646b99-5700-47fe-bafc-5bb5c0882958" d="M12,22H48A10,10,0,0,0,48,2H12a10,10,0,0,0,0,20Z"/></svg>