<?xml version="1.0" encoding="utf-8"?>
<!-- Generator: Adobe Illustrator 22.1.0, SVG Export Plug-In . SVG Version: 6.00 Build 0)  -->
<svg version="1.1" id="圖層_1" xmlns="http://www.w3.org/2000/svg" xmlns:xlink="http://www.w3.org/1999/xlink" x="0px" y="0px"
	 viewBox="0 0 595.3 841.9" style="enable-background:new 0 0 595.3 841.9;" xml:space="preserve">
<style type="text/css">
	.st0{fill:#FFFFFF;}
</style>
<path class="st0" d="M415.8,512.8l33.1-33.1c5.2-5.2,14.2-1.5,14.2,5.9v150.3c0,27.4-22.2,49.6-49.6,49.6H49.6
	C22.2,685.5,0,663.3,0,635.9V272.1c0-27.4,22.2-49.6,49.6-49.6h282.7c7.3,0,11.1,8.9,5.9,14.2l-33.1,33.1c-1.6,1.6-3.6,2.4-5.9,2.4
	H49.6v363.8h363.8V518.6C413.4,516.4,414.2,514.4,415.8,512.8z M577.6,304.3L306.2,575.7L212.8,586c-27.1,3-50.1-19.8-47.1-47.1
	l10.3-93.4L447.4,174c23.7-23.7,61.9-23.7,85.5,0l44.6,44.6C601.2,242.4,601.2,280.7,577.6,304.3L577.6,304.3L577.6,304.3z
	 M475.5,336.2l-60-60l-192,192.1l-7.5,67.5l67.5-7.5L475.5,336.2z M542.5,253.8l-44.6-44.6c-4.2-4.2-11.2-4.2-15.3,0l-31.9,31.9
	l60,60l31.9-31.9C546.7,264.9,546.7,258.1,542.5,253.8z"/>
</svg>
