<?xml version="1.0" encoding="utf-8"?>
<!-- Generator: Adobe Illustrator 16.0.0, SVG Export Plug-In . SVG Version: 6.00 Build 0)  -->
<!DOCTYPE svg PUBLIC "-//W3C//DTD SVG 1.1//EN" "http://www.w3.org/Graphics/SVG/1.1/DTD/svg11.dtd">
<svg version="1.1" id="圖層_1" xmlns="http://www.w3.org/2000/svg" xmlns:xlink="http://www.w3.org/1999/xlink" x="0px" y="0px"
	 width="595.281px" height="841.891px" viewBox="0 0 595.281 841.891" enable-background="new 0 0 595.281 841.891"
	 xml:space="preserve">
<path fill="#FFFFFF" d="M577.542,455.962H317.884L490.81,628.888c6.609,6.608,17.486,7.146,24.283,0.744
	c42.349-39.896,71.478-93.681,80.023-154.139C596.582,465.142,587.992,455.962,577.542,455.962L577.542,455.962z M560.22,385.053
	c-9.018-130.722-113.475-235.18-244.197-244.196c-9.979-0.688-18.382,7.727-18.382,17.728v244.854h244.863
	C552.505,403.437,560.91,395.033,560.22,385.053z M245.115,455.962V196.303c0-10.45-9.181-19.04-19.521-17.574
	C95.19,197.156-4.486,311.081,0.153,447.613c4.771,140.219,125.501,255.204,265.786,253.442
	c55.15-0.689,106.111-18.46,148.009-48.181c8.646-6.129,9.215-18.854,1.719-26.351L245.115,455.962z"/>
</svg>
