<svg id="圖層_1" data-name="圖層 1" xmlns="http://www.w3.org/2000/svg" xmlns:xlink="http://www.w3.org/1999/xlink" viewBox="0 0 362 68.66"><defs><style>.cls-1{fill:#c79f62;}.cls-2{fill:none;}.cls-3{fill:url(#linear-gradient);}.cls-4{fill:url(#linear-gradient-2);}.cls-5{fill:url(#linear-gradient-3);}.cls-6{fill:url(#linear-gradient-4);}.cls-7{fill:url(#linear-gradient-5);}.cls-8{fill:url(#linear-gradient-6);}.cls-9{fill:url(#linear-gradient-7);}.cls-10{fill:url(#linear-gradient-8);}.cls-11{fill:url(#linear-gradient-9);}.cls-12{fill:url(#linear-gradient-10);}.cls-13{fill:url(#linear-gradient-11);}.cls-14{fill:url(#linear-gradient-12);}.cls-15{fill:url(#linear-gradient-13);}.cls-16{fill:url(#linear-gradient-14);}.cls-17{fill:url(#linear-gradient-15);}</style><linearGradient id="linear-gradient" x1="83.01" y1="28.8" x2="83.01" y2="58.76" gradientUnits="userSpaceOnUse"><stop offset="0" stop-color="#c79f62"/><stop offset="0.05" stop-color="#c79f62" stop-opacity="0.91"/><stop offset="0.19" stop-color="#c79f62" stop-opacity="0.73"/><stop offset="0.33" stop-color="#c79f62" stop-opacity="0.57"/><stop offset="0.47" stop-color="#c79f62" stop-opacity="0.45"/><stop offset="0.62" stop-color="#c79f62" stop-opacity="0.37"/><stop offset="0.79" stop-color="#c79f62" stop-opacity="0.32"/><stop offset="1" stop-color="#c79f62" stop-opacity="0.3"/></linearGradient><linearGradient id="linear-gradient-2" x1="83.01" y1="57.51" x2="83.01" y2="30.05" gradientUnits="userSpaceOnUse"><stop offset="0" stop-color="#c79f62"/><stop offset="0.07" stop-color="#c79f62" stop-opacity="0.84"/><stop offset="0.18" stop-color="#c79f62" stop-opacity="0.62"/><stop offset="0.3" stop-color="#c79f62" stop-opacity="0.43"/><stop offset="0.42" stop-color="#c79f62" stop-opacity="0.27"/><stop offset="0.54" stop-color="#c79f62" stop-opacity="0.15"/><stop offset="0.68" stop-color="#c79f62" stop-opacity="0.07"/><stop offset="0.82" stop-color="#c79f62" stop-opacity="0.02"/><stop offset="1" stop-color="#c79f62" stop-opacity="0"/></linearGradient><linearGradient id="linear-gradient-3" x1="115.67" y1="28.8" x2="115.67" y2="58.76" xlink:href="#linear-gradient"/><linearGradient id="linear-gradient-4" x1="115.67" y1="57.51" x2="115.67" y2="30.05" xlink:href="#linear-gradient-2"/><linearGradient id="linear-gradient-5" x1="148.34" y1="28.8" x2="148.34" y2="58.76" xlink:href="#linear-gradient"/><linearGradient id="linear-gradient-6" x1="148.34" y1="57.51" x2="148.34" y2="30.05" xlink:href="#linear-gradient-2"/><linearGradient id="linear-gradient-7" x1="181" y1="28.8" x2="181" y2="58.76" xlink:href="#linear-gradient"/><linearGradient id="linear-gradient-8" x1="181" y1="57.51" x2="181" y2="30.05" xlink:href="#linear-gradient-2"/><linearGradient id="linear-gradient-9" x1="213.66" y1="28.8" x2="213.66" y2="58.76" xlink:href="#linear-gradient"/><linearGradient id="linear-gradient-10" x1="213.66" y1="57.51" x2="213.66" y2="30.05" xlink:href="#linear-gradient-2"/><linearGradient id="linear-gradient-11" x1="246.33" y1="28.8" x2="246.33" y2="58.76" xlink:href="#linear-gradient"/><linearGradient id="linear-gradient-12" x1="246.33" y1="57.51" x2="246.33" y2="30.05" xlink:href="#linear-gradient-2"/><linearGradient id="linear-gradient-13" x1="278.99" y1="28.8" x2="278.99" y2="58.76" xlink:href="#linear-gradient"/><linearGradient id="linear-gradient-14" x1="278.99" y1="57.51" x2="278.99" y2="30.05" xlink:href="#linear-gradient-2"/><linearGradient id="linear-gradient-15" x1="181" y1="68.66" x2="181" gradientUnits="userSpaceOnUse"><stop offset="0" stop-color="#c79f62"/><stop offset="1" stop-color="#c79f62" stop-opacity="0.3"/></linearGradient></defs><title>index-jackpot</title><path class="cls-1" d="M98.07,55.22v-2.5h2.5v2.5a4.52,4.52,0,0,1-.49,2.23,3.22,3.22,0,0,1-1.55,1.31l-.61-.94a2.08,2.08,0,0,0,1-.9,3.88,3.88,0,0,0,.36-1.7Z"/><path class="cls-1" d="M196.15,55.22v-2.5h2.5v2.5a4.52,4.52,0,0,1-.48,2.23,3.27,3.27,0,0,1-1.55,1.31l-.61-.94a2.05,2.05,0,0,0,1-.9,3.86,3.86,0,0,0,.37-1.7Z"/><rect class="cls-2" x="94.25" y="48.77" width="9.99" height="9.99"/><path class="cls-3" d="M89.25,30.05A3.75,3.75,0,0,1,93,33.79v20a3.75,3.75,0,0,1-3.75,3.75H76.77A3.75,3.75,0,0,1,73,53.76v-20a3.75,3.75,0,0,1,3.74-3.74H89.25m0-1.25H76.77a5,5,0,0,0-5,5v20a5,5,0,0,0,5,5H89.25a5,5,0,0,0,5-5v-20a5,5,0,0,0-5-5Z"/><rect class="cls-4" x="73.03" y="30.05" width="19.97" height="27.46" rx="3.74"/><path class="cls-5" d="M121.92,30.05a3.75,3.75,0,0,1,3.74,3.74v20a3.75,3.75,0,0,1-3.74,3.75H109.43a3.75,3.75,0,0,1-3.74-3.75v-20a3.75,3.75,0,0,1,3.74-3.74h12.49m0-1.25H109.43a5,5,0,0,0-5,5v20a5,5,0,0,0,5,5h12.49a5,5,0,0,0,5-5v-20a5,5,0,0,0-5-5Z"/><rect class="cls-6" x="105.69" y="30.05" width="19.97" height="27.46" rx="3.74"/><path class="cls-7" d="M154.58,30.05a3.75,3.75,0,0,1,3.74,3.74v20a3.75,3.75,0,0,1-3.74,3.75H142.1a3.75,3.75,0,0,1-3.75-3.75v-20a3.75,3.75,0,0,1,3.75-3.74h12.48m0-1.25H142.1a5,5,0,0,0-5,5v20a5,5,0,0,0,5,5h12.48a5,5,0,0,0,5-5v-20a5,5,0,0,0-5-5Z"/><rect class="cls-8" x="138.35" y="30.05" width="19.97" height="27.46" rx="3.74"/><path class="cls-9" d="M187.24,30.05A3.75,3.75,0,0,1,191,33.79v20a3.75,3.75,0,0,1-3.75,3.75H174.76A3.75,3.75,0,0,1,171,53.76v-20a3.75,3.75,0,0,1,3.75-3.74h12.48m0-1.25H174.76a5,5,0,0,0-5,5v20a5,5,0,0,0,5,5h12.48a5,5,0,0,0,5-5v-20a5,5,0,0,0-5-5Z"/><rect class="cls-10" x="171.01" y="30.05" width="19.97" height="27.46" rx="3.74"/><path class="cls-11" d="M219.9,30.05a3.75,3.75,0,0,1,3.75,3.74v20a3.75,3.75,0,0,1-3.75,3.75H207.42a3.75,3.75,0,0,1-3.74-3.75v-20a3.75,3.75,0,0,1,3.74-3.74H219.9m0-1.25H207.42a5,5,0,0,0-5,5v20a5,5,0,0,0,5,5H219.9a5,5,0,0,0,5-5v-20a5,5,0,0,0-5-5Z"/><rect class="cls-12" x="203.68" y="30.05" width="19.97" height="27.46" rx="3.74"/><path class="cls-13" d="M252.57,30.05a3.75,3.75,0,0,1,3.74,3.74v20a3.75,3.75,0,0,1-3.74,3.75H240.08a3.75,3.75,0,0,1-3.74-3.75v-20a3.75,3.75,0,0,1,3.74-3.74h12.49m0-1.25H240.08a5,5,0,0,0-5,5v20a5,5,0,0,0,5,5h12.49a5,5,0,0,0,5-5v-20a5,5,0,0,0-5-5Z"/><rect class="cls-14" x="236.34" y="30.05" width="19.97" height="27.46" rx="3.74"/><path class="cls-15" d="M285.23,30.05A3.75,3.75,0,0,1,289,33.79v20a3.75,3.75,0,0,1-3.74,3.75H272.75A3.75,3.75,0,0,1,269,53.76v-20a3.75,3.75,0,0,1,3.75-3.74h12.48m0-1.25H272.75a5,5,0,0,0-5,5v20a5,5,0,0,0,5,5h12.48a5,5,0,0,0,5-5v-20a5,5,0,0,0-5-5Z"/><rect class="cls-16" x="269" y="30.05" width="19.97" height="27.46" rx="3.74"/><path class="cls-17" d="M349.52,2.5a10,10,0,0,1,10,10V56.17a10,10,0,0,1-10,10h-337a10,10,0,0,1-10-10V12.48a10,10,0,0,1,10-10h337m0-2.5h-337A12.48,12.48,0,0,0,0,12.48V56.17A12.49,12.49,0,0,0,12.48,68.66h337A12.49,12.49,0,0,0,362,56.17V12.48A12.48,12.48,0,0,0,349.52,0Z"/></svg>