<svg id="圖層_1" data-name="圖層 1" xmlns="http://www.w3.org/2000/svg" xmlns:xlink="http://www.w3.org/1999/xlink" viewBox="0 0 1105 37.5"><defs><style>.cls-1{opacity:0.7;}.cls-2{fill:url(#linear-gradient);}.cls-3{fill:url(#linear-gradient-2);}</style><linearGradient id="linear-gradient" x1="552.5" y1="37.5" x2="552.5" gradientUnits="userSpaceOnUse"><stop offset="0" stop-color="#c79f62"/><stop offset="1" stop-color="#c79f62" stop-opacity="0.3"/></linearGradient><linearGradient id="linear-gradient-2" x1="552.5" x2="552.5" y2="35" gradientUnits="userSpaceOnUse"><stop offset="0" stop-color="#c79f62"/><stop offset="0.07" stop-color="#c79f62" stop-opacity="0.84"/><stop offset="0.18" stop-color="#c79f62" stop-opacity="0.62"/><stop offset="0.3" stop-color="#c79f62" stop-opacity="0.43"/><stop offset="0.42" stop-color="#c79f62" stop-opacity="0.27"/><stop offset="0.54" stop-color="#c79f62" stop-opacity="0.15"/><stop offset="0.68" stop-color="#c79f62" stop-opacity="0.07"/><stop offset="0.82" stop-color="#c79f62" stop-opacity="0.02"/><stop offset="1" stop-color="#c79f62" stop-opacity="0"/></linearGradient></defs><title>index-msg-bg</title><g class="cls-1"><path class="cls-2" d="M1102.5,0V25a10,10,0,0,1-10,10H12.5a10,10,0,0,1-10-10V0H0V25A12.5,12.5,0,0,0,12.5,37.5h1080A12.5,12.5,0,0,0,1105,25V0Z"/></g><path class="cls-3" d="M12.5,35h1080a10,10,0,0,0,10-10V0H2.5V25A10,10,0,0,0,12.5,35Z"/></svg>