<svg id="圖層_1" data-name="圖層 1" xmlns="http://www.w3.org/2000/svg" xmlns:xlink="http://www.w3.org/1999/xlink" viewBox="0 0 112.5 97.5"><defs><style>.cls-1{fill:url(#linear-gradient);}.cls-2{opacity:0.7;fill:url(#linear-gradient-2);}.cls-3{fill:#c79f62;}</style><linearGradient id="linear-gradient" x1="56.25" y1="87.5" x2="56.25" gradientUnits="userSpaceOnUse"><stop offset="0" stop-color="#c79f62"/><stop offset="1" stop-color="#c79f62" stop-opacity="0"/></linearGradient><linearGradient id="linear-gradient-2" x1="56.25" y1="2.5" x2="56.25" y2="85" gradientUnits="userSpaceOnUse"><stop offset="0" stop-color="#c79f62" stop-opacity="0"/><stop offset="0.19" stop-color="#c79e61" stop-opacity="0.02"/><stop offset="0.34" stop-color="#c59d60" stop-opacity="0.07"/><stop offset="0.48" stop-color="#c39a5d" stop-opacity="0.17"/><stop offset="0.61" stop-color="#c1965a" stop-opacity="0.3"/><stop offset="0.73" stop-color="#bd9155" stop-opacity="0.48"/><stop offset="0.86" stop-color="#b98a4f" stop-opacity="0.69"/><stop offset="0.97" stop-color="#b38348" stop-opacity="0.93"/><stop offset="1" stop-color="#b28146"/></linearGradient></defs><title>index-slotbtn-up</title><path class="cls-1" d="M106.25,2.5A3.75,3.75,0,0,1,110,6.25v75A3.75,3.75,0,0,1,106.25,85H6.25A3.75,3.75,0,0,1,2.5,81.25v-75A3.75,3.75,0,0,1,6.25,2.5h100m0-2.5H6.25A6.25,6.25,0,0,0,0,6.25v75A6.25,6.25,0,0,0,6.25,87.5h100a6.25,6.25,0,0,0,6.25-6.25v-75A6.25,6.25,0,0,0,106.25,0Z"/><rect class="cls-2" x="2.5" y="2.5" width="107.5" height="82.5" rx="3.75"/><polygon class="cls-3" points="66.25 87.5 46.25 87.5 56.25 97.5 66.25 87.5"/></svg>