<svg id="452f1610-4294-4663-baf0-18c697d14690" data-name="圖層 1" xmlns="http://www.w3.org/2000/svg" xmlns:xlink="http://www.w3.org/1999/xlink" viewBox="0 0 90 65"><defs><style>.\34 c791931-83b8-414c-9c60-11978a7ae0e5{fill:url(#994e199b-abfd-44af-8883-af737e954380);}.\37 551b16a-d3e8-4b26-86ad-36d422472084{opacity:0.7;fill:url(#6d67ce31-2339-41c5-912b-0d04056cdbaa);}.f4c66fec-04e0-49a1-a9b6-e333aba07a30{fill:#c29b61;}</style><linearGradient id="994e199b-abfd-44af-8883-af737e954380" x1="45" y1="65" x2="45" gradientUnits="userSpaceOnUse"><stop offset="0" stop-color="#c29b61"/><stop offset="1" stop-color="#c29b61" stop-opacity="0"/></linearGradient><linearGradient id="6d67ce31-2339-41c5-912b-0d04056cdbaa" x1="45" y1="3" x2="45" y2="62" gradientUnits="userSpaceOnUse"><stop offset="0" stop-color="#c29b61" stop-opacity="0"/><stop offset="0.19" stop-color="#c29a60" stop-opacity="0.02"/><stop offset="0.34" stop-color="#c0995f" stop-opacity="0.08"/><stop offset="0.48" stop-color="#be965c" stop-opacity="0.17"/><stop offset="0.62" stop-color="#bb9258" stop-opacity="0.31"/><stop offset="0.74" stop-color="#b88d53" stop-opacity="0.49"/><stop offset="0.87" stop-color="#b3864d" stop-opacity="0.71"/><stop offset="0.98" stop-color="#ae7f46" stop-opacity="0.96"/><stop offset="1" stop-color="#ad7e45"/></linearGradient></defs><title>nav_btn_up</title><path class="4c791931-83b8-414c-9c60-11978a7ae0e5" d="M84,3a3,3,0,0,1,3,3V59a3,3,0,0,1-3,3H6a3,3,0,0,1-3-3V6A3,3,0,0,1,6,3H84m0-3H6A6,6,0,0,0,0,6V59a6,6,0,0,0,6,6H84a6,6,0,0,0,6-6V6a6,6,0,0,0-6-6Z"/><rect class="7551b16a-d3e8-4b26-86ad-36d422472084" x="3" y="3" width="84" height="59" rx="3" ry="3"/><polygon class="f4c66fec-04e0-49a1-a9b6-e333aba07a30" points="57 65 33 65 45 53 57 65"/></svg>