<svg id="圖層_1" data-name="圖層 1" xmlns="http://www.w3.org/2000/svg" viewBox="0 0 138 50"><defs><style>.cls-1{fill:#fff;}</style></defs><title>page-pre-out</title><path class="cls-1" d="M131.73,2A4.27,4.27,0,0,1,136,6.25v37.5A4.27,4.27,0,0,1,131.73,48H25.08a2.77,2.77,0,0,1-2-.82L2.81,27A2.74,2.74,0,0,1,2,25a2.78,2.78,0,0,1,.81-2L23.12,2.81a2.77,2.77,0,0,1,2-.81H131.73m0-2H25.08a4.76,4.76,0,0,0-3.37,1.4L1.4,21.63a4.75,4.75,0,0,0,0,6.74L21.71,48.6A4.8,4.8,0,0,0,25.08,50H131.73A6.26,6.26,0,0,0,138,43.75V6.25A6.26,6.26,0,0,0,131.73,0Z"/></svg>