<svg id="圖層_1" data-name="圖層 1" xmlns="http://www.w3.org/2000/svg" xmlns:xlink="http://www.w3.org/1999/xlink" viewBox="0 0 182.5 182.5"><defs><style>.cls-1{fill:url(#linear-gradient);}</style><linearGradient id="linear-gradient" x1="91.25" y1="182.5" x2="91.25" gradientUnits="userSpaceOnUse"><stop offset="0" stop-color="#c79f62"/><stop offset="1" stop-color="#231815" stop-opacity="0.7"/></linearGradient></defs><title>slot-gamebox</title><path class="cls-1" d="M170,2.5a10,10,0,0,1,10,10V170a10,10,0,0,1-10,10H12.5a10,10,0,0,1-10-10V12.5a10,10,0,0,1,10-10H170M170,0H12.5A12.5,12.5,0,0,0,0,12.5V170a12.5,12.5,0,0,0,12.5,12.5H170A12.5,12.5,0,0,0,182.5,170V12.5A12.5,12.5,0,0,0,170,0Z"/></svg>