<svg id="圖層_1" data-name="圖層 1" xmlns="http://www.w3.org/2000/svg" xmlns:xlink="http://www.w3.org/1999/xlink" viewBox="0 0 106.25 30"><defs><style>.cls-1{fill:#40210f;}.cls-2{fill:url(#linear-gradient);}.cls-3{fill:url(#linear-gradient-2);}</style><linearGradient id="linear-gradient" x1="53.13" y1="30" x2="53.13" gradientUnits="userSpaceOnUse"><stop offset="0" stop-color="#c79f62"/><stop offset="1" stop-color="#c79f62" stop-opacity="0.3"/></linearGradient><linearGradient id="linear-gradient-2" x1="53.13" y1="2.5" x2="53.13" y2="27.5" gradientUnits="userSpaceOnUse"><stop offset="0" stop-color="#c79f62"/><stop offset="0.07" stop-color="#c79f62" stop-opacity="0.84"/><stop offset="0.18" stop-color="#c79f62" stop-opacity="0.62"/><stop offset="0.3" stop-color="#c79f62" stop-opacity="0.43"/><stop offset="0.42" stop-color="#c79f62" stop-opacity="0.27"/><stop offset="0.54" stop-color="#c79f62" stop-opacity="0.15"/><stop offset="0.68" stop-color="#c79f62" stop-opacity="0.07"/><stop offset="0.82" stop-color="#c79f62" stop-opacity="0.02"/><stop offset="1" stop-color="#c79f62" stop-opacity="0"/></linearGradient></defs><title>slot-type</title><path class="cls-1" d="M106.25,15a15,15,0,0,1-15,15H15A15,15,0,0,1,0,15H0A15,15,0,0,1,15,0H91.25a15,15,0,0,1,15,15Z"/><path class="cls-2" d="M91.25,2.5a12.5,12.5,0,0,1,0,25H15a12.5,12.5,0,0,1,0-25H91.25m0-2.5H15a15,15,0,0,0,0,30H91.25a15,15,0,0,0,0-30Z"/><path class="cls-3" d="M91.25,2.5H15a12.5,12.5,0,0,0,0,25H91.25a12.5,12.5,0,0,0,0-25Z"/></svg>