<svg xmlns="http://www.w3.org/2000/svg" xmlns:xlink="http://www.w3.org/1999/xlink" viewBox="0 0 75 30"><defs><style>.a{fill:url(#a);}.b{fill:url(#b);}</style><linearGradient id="a" x1="0.5" x2="0.5" y2="1" gradientUnits="objectBoundingBox"><stop offset="0" stop-color="#989898"/><stop offset="1" stop-color="#333"/></linearGradient><linearGradient id="b" x1="0.5" y1="1" x2="0.5" gradientUnits="objectBoundingBox"><stop offset="0" stop-color="gray"/><stop offset="1" stop-color="#333"/></linearGradient></defs><path class="a" d="M285.5,301h-60a7.49,7.49,0,0,1-7.5-7.5v-15a7.49,7.49,0,0,1,7.5-7.5h60a7.49,7.49,0,0,1,7.5,7.5v15A7.49,7.49,0,0,1,285.5,301Z" transform="translate(-218 -271)"/><path class="b" d="M285.5,273a5.484,5.484,0,0,1,5.5,5.5v15a5.484,5.484,0,0,1-5.5,5.5h-60a5.484,5.484,0,0,1-5.5-5.5v-15a5.484,5.484,0,0,1,5.5-5.5h60m0-2h-60a7.49,7.49,0,0,0-7.5,7.5v15a7.49,7.49,0,0,0,7.5,7.5h60a7.49,7.49,0,0,0,7.5-7.5v-15a7.49,7.49,0,0,0-7.5-7.5Z" transform="translate(-218 -271)"/></svg>