<svg id="discount-btn" xmlns="http://www.w3.org/2000/svg" xmlns:xlink="http://www.w3.org/1999/xlink" viewBox="0 0 40 40">
  <defs>
    <style>
      .cls-1 {
        fill: url(#linear-gradient);
      }

      .cls-2 {
        opacity: 0.7;
        fill: url(#linear-gradient-2);
      }

      .cls-3 {
        fill: url(#linear-gradient-3);
      }

      .cls-4 {
        fill: #fff;
      }
    </style>
    <linearGradient id="linear-gradient" x1="0.5" y1="1" x2="0.5" gradientUnits="objectBoundingBox">
      <stop offset="0.015" stop-color="#5976ba"/>
      <stop offset="1" stop-color="#f19ec2"/>
    </linearGradient>
    <linearGradient id="linear-gradient-2" x1="1" y1="0.5" x2="0" y2="0.5" gradientUnits="objectBoundingBox">
      <stop offset="0" stop-color="#fff"/>
      <stop offset="1" stop-color="#fff" stop-opacity="0"/>
    </linearGradient>
    <linearGradient id="linear-gradient-3" x1="0.5" y1="1" x2="0.5" gradientUnits="objectBoundingBox">
      <stop offset="0" stop-color="gray"/>
      <stop offset="1" stop-color="#333"/>
    </linearGradient>
  </defs>
  <g id="组_52" data-name="组 52">
    <path id="路径_39" data-name="路径 39" class="cls-1" d="M35.25,40.25H5.75a5,5,0,0,1-5-5V5.75a5,5,0,0,1,5-5h29.5a5,5,0,0,1,5,5v29.5A5,5,0,0,1,35.25,40.25Z" transform="translate(-0.5 -0.5)"/>
    <path id="路径_40" data-name="路径 40" class="cls-2" d="M40.25,8.993V8.157A7.407,7.407,0,0,0,32.843.75H8.157A7.407,7.407,0,0,0,.75,8.157v22A66.445,66.445,0,0,1,40.25,8.993Z" transform="translate(-0.5 -0.5)"/>
    <g id="组_51" data-name="组 51">
      <path id="路径_41" data-name="路径 41" class="cls-3" d="M35,1.333A3.669,3.669,0,0,1,38.667,5V35A3.669,3.669,0,0,1,35,38.667H5A3.669,3.669,0,0,1,1.333,35V5A3.669,3.669,0,0,1,5,1.333H35M35,0H5A5,5,0,0,0,0,5V35a5,5,0,0,0,5,5H35a5,5,0,0,0,5-5V5a5,5,0,0,0-5-5Z"/>
    </g>
  </g>
  <path id="路径_42" data-name="路径 42" class="cls-4" d="M19.88,24.11H45.123a1.125,1.125,0,0,1,1.127,1.127V30.36a1.132,1.132,0,0,1-1.127,1.127H45V43.873A1.131,1.131,0,0,1,43.87,45H21.13A1.128,1.128,0,0,1,20,43.873V31.483H19.88a1.13,1.13,0,0,1-1.13-1.127v-5.12a1.128,1.128,0,0,1,1.13-1.127ZM34.687,42.74V31.483H30.313V42.737h4.373Zm-5.723,0V31.483H22.257V42.737h6.707Zm7.073-11.257V42.737h6.707V31.483Zm-3.483-14.15a2.87,2.87,0,0,1,1.5.423A4.038,4.038,0,0,1,37.87,15a4.027,4.027,0,0,1,0,8.053H27.133a4.026,4.026,0,1,1,3.833-5.237,2.83,2.83,0,0,1,1.587-.483Zm1.063,1.793a1.515,1.515,0,0,0-1.063-.44,1.5,1.5,0,0,0-1.5,1.51,1.509,1.509,0,0,0,2.54,1.1l.027-.033A1.5,1.5,0,0,0,34.06,20.2a1.52,1.52,0,0,0-.443-1.07ZM35.2,19.1a2.913,2.913,0,0,1,.213,1.09,2.848,2.848,0,0,1-.43,1.5l2.887.007v0A2.673,2.673,0,1,0,35.2,19.027l0,.077Zm-5.07,2.6a2.816,2.816,0,0,1-.427-1.5,2.987,2.987,0,0,1,.147-.92.757.757,0,0,1-.047-.25A2.666,2.666,0,1,0,27.137,21.7v.007l2.99-.007ZM44,26.367H21V29.23h22.99V26.367Z" transform="translate(-12.5 -10)"/>
</svg>
