<svg xmlns="http://www.w3.org/2000/svg" viewBox="0 0 14 12.253"><defs><style>.a{fill:#fff;}</style></defs><path class="a" d="M12.534,32.862A4.119,4.119,0,0,0,7,33.272a4.116,4.116,0,0,0-5.534-.41,4.137,4.137,0,0,0-.29,6.048l4.8,4.886a1.436,1.436,0,0,0,2.056,0l4.8-4.886A4.14,4.14,0,0,0,12.534,32.862Zm-.645,5.127-4.8,4.886a.112.112,0,0,1-.186,0l-4.8-4.886a2.82,2.82,0,0,1,.2-4.121,2.772,2.772,0,0,1,3.732.287L7,35.131l.957-.976a2.77,2.77,0,0,1,3.732-.29A2.832,2.832,0,0,1,11.889,37.989Z" transform="translate(0 -31.978)"/></svg>