<svg xmlns="http://www.w3.org/2000/svg" viewBox="0 0 24.987 25.005"><defs><style>.a{fill:#fff;}</style></defs><path class="a" d="M157.919,537.894V547.1l.055.045,6.369,4.944V532.915l-6.424,4.979Zm11.529-3.71a.969.969,0,0,1-.325-1.32.946.946,0,0,1,1.3-.33,11.672,11.672,0,0,1,0,19.928.933.933,0,0,1-1.3-.325.969.969,0,0,1,.325-1.32,9.783,9.783,0,0,0,3.42-13.089,9.525,9.525,0,0,0-3.415-3.545Zm-12.669,3.9H152.9v8.824h3.875v-8.824Zm.25-1.925,7.634-5.929a.973.973,0,0,1,.625-.235.96.96,0,0,1,.95.97v6.374a5.528,5.528,0,0,1,2.23,1.71,5.647,5.647,0,0,1,0,6.909,5.516,5.516,0,0,1-2.23,1.7v6.374h0a1.023,1.023,0,0,1-.19.59.954.954,0,0,1-1.33.18l-7.684-5.974H151.96a.952.952,0,0,1-.95-.96V537.139a.964.964,0,0,1,.95-.97h5.069Zm9.209,2.45v7.779a4.544,4.544,0,0,0,1.335-1.15,4.482,4.482,0,0,0,0-5.479,4.334,4.334,0,0,0-1.335-1.15Z" transform="translate(-151.01 -530)"/></svg>