<svg id="icon-msg" xmlns="http://www.w3.org/2000/svg" width="20" height="20" viewBox="0 0 20 20">
  <path id="路径_1144" data-name="路径 1144" d="M41.063,503.645v7.369l.043.038L46.2,515V499.659l-5.135,3.985Z" transform="translate(-35.531 -497.33)" fill="#231815"/>
  <path id="路径_1145" data-name="路径 1145" d="M59.147,500.267a.777.777,0,0,1-.261-1.056.757.757,0,0,1,1.04-.266,9.341,9.341,0,0,1,0,15.946.747.747,0,0,1-1.038-.258.775.775,0,0,1,.261-1.055,7.8,7.8,0,0,0,0-13.311" transform="translate(-44.389 -496.92)" fill="#231815"/>
  <rect id="矩形_539" data-name="矩形 539" width="3.099" height="7.058" transform="translate(1.52 6.474)" fill="#231815"/>
  <path id="路径_1146" data-name="路径 1146" d="M34.822,499.933l6.108-4.743a.758.758,0,0,1,1.259.584v5.1a4.43,4.43,0,0,1,1.784,1.366,4.512,4.512,0,0,1,0,5.525,4.429,4.429,0,0,1-1.784,1.366v5.1h0a.789.789,0,0,1-.154.471.76.76,0,0,1-1.063.144l-6.148-4.781H30.761A.763.763,0,0,1,30,509.3v-8.591a.77.77,0,0,1,.761-.774Z" transform="translate(-30 -495)" fill="#231815"/>
  <path id="路径_1147" data-name="路径 1147" d="M54.378,508.782v6.224a3.657,3.657,0,0,0,1.068-.919,3.591,3.591,0,0,0,0-4.387,3.54,3.54,0,0,0-1.068-.918" transform="translate(-42.189 -501.891)" fill="#231815"/>
</svg>
