<svg id="service-btn" xmlns="http://www.w3.org/2000/svg" xmlns:xlink="http://www.w3.org/1999/xlink" viewBox="0 0 40 40">
  <defs>
    <style>
      .cls-1 {
        fill: url(#linear-gradient);
      }

      .cls-2 {
        opacity: 0.7;
        fill: url(#linear-gradient-2);
      }

      .cls-3 {
        fill: url(#linear-gradient-3);
      }

      .cls-4 {
        fill: #fff;
      }
    </style>
    <linearGradient id="linear-gradient" x1="0.5" y1="1" x2="0.5" gradientUnits="objectBoundingBox">
      <stop offset="0.015" stop-color="#5976ba"/>
      <stop offset="1" stop-color="#f19ec2"/>
    </linearGradient>
    <linearGradient id="linear-gradient-2" x1="1" y1="0.5" x2="0" y2="0.5" gradientUnits="objectBoundingBox">
      <stop offset="0" stop-color="#fff"/>
      <stop offset="1" stop-color="#fff" stop-opacity="0"/>
    </linearGradient>
    <linearGradient id="linear-gradient-3" x1="0.5" y1="1" x2="0.5" gradientUnits="objectBoundingBox">
      <stop offset="0" stop-color="gray"/>
      <stop offset="1" stop-color="#333"/>
    </linearGradient>
  </defs>
  <g id="组_49" data-name="组 49">
    <path id="路径_35" data-name="路径 35" class="cls-1" d="M35.25,40.25H5.75a5,5,0,0,1-5-5V5.75a5,5,0,0,1,5-5h29.5a5,5,0,0,1,5,5v29.5A5,5,0,0,1,35.25,40.25Z" transform="translate(-0.5 -0.5)"/>
    <path id="路径_36" data-name="路径 36" class="cls-2" d="M40.25,8.993V8.157A7.407,7.407,0,0,0,32.843.75H8.157A7.407,7.407,0,0,0,.75,8.157v22A66.445,66.445,0,0,1,40.25,8.993Z" transform="translate(-0.5 -0.5)"/>
    <g id="组_48" data-name="组 48">
      <path id="路径_37" data-name="路径 37" class="cls-3" d="M35,1.333A3.669,3.669,0,0,1,38.667,5V35A3.669,3.669,0,0,1,35,38.667H5A3.669,3.669,0,0,1,1.333,35V5A3.669,3.669,0,0,1,5,1.333H35M35,0H5A5,5,0,0,0,0,5V35a5,5,0,0,0,5,5H35a5,5,0,0,0,5-5V5a5,5,0,0,0-5-5Z"/>
    </g>
  </g>
  <path id="路径_38" data-name="路径 38" class="cls-4" d="M21.882,16.086l4.423,5.69.057.08a2.713,2.713,0,0,1,.443.923,2.767,2.767,0,0,1,.063,1.127,2.934,2.934,0,0,1-.37,1.06c-.017.023-.03.047-.047.067a2.6,2.6,0,0,1-.717.75.365.365,0,0,0-.07.047l-2.15,1.57a1.85,1.85,0,0,0,.3,1.843,28.415,28.415,0,0,0,3.163,3.78h0a28.616,28.616,0,0,0,3.783,3.163,1.843,1.843,0,0,0,1.84.3q.805-1.11,1.617-2.22h0a2.863,2.863,0,0,1,.827-.763h0a2.878,2.878,0,0,1,1.06-.377h.043a2.844,2.844,0,0,1,1.08.067.134.134,0,0,1,.067.023,2.629,2.629,0,0,1,.937.477h0q2.845,2.205,5.693,4.427c.03.023.06.047.09.067a3.038,3.038,0,0,1,.687.853h0a2.725,2.725,0,0,1,.307,1.173,2.893,2.893,0,0,1-.2,1.2h0a2.784,2.784,0,0,1-.693.99,7.766,7.766,0,0,1-1.363,1.023c-.023.01-.043.023-.067.033a8.946,8.946,0,0,1-1.86.843,15.165,15.165,0,0,1-9.677-.217,24.357,24.357,0,0,1-9.317-5.907,24.148,24.148,0,0,1-5.92-9.313,15.232,15.232,0,0,1-.217-9.677,9.507,9.507,0,0,1,.877-1.923h0a8.01,8.01,0,0,1,1.023-1.367,2.791,2.791,0,0,1,1-.693l.093-.033a2.868,2.868,0,0,1,1.1-.17,2.682,2.682,0,0,1,2.1,1.09Zm2.6,7.1c-1.473-1.9-2.95-3.79-4.423-5.693h0a.6.6,0,0,0-.14-.137c-.007,0-.02-.01-.027-.01a.628.628,0,0,0-.217-.057.771.771,0,0,0-.187.023.052.052,0,0,1-.037.01.561.561,0,0,0-.18.137,5.544,5.544,0,0,0-.733.98h0a7.241,7.241,0,0,0-.667,1.457,13.011,13.011,0,0,0,.213,8.24,21.973,21.973,0,0,0,5.363,8.4,22.073,22.073,0,0,0,8.407,5.373,13.119,13.119,0,0,0,8.237.217,8.648,8.648,0,0,0,1.41-.637c.017-.01.03-.023.05-.033a5.845,5.845,0,0,0,.983-.74.414.414,0,0,0,.127-.183s0,0,0,.01c0-.01,0-.01,0-.01a.489.489,0,0,0,.03-.217.592.592,0,0,0-.05-.217h0v-.01a.764.764,0,0,0-.107-.127l-.043-.033c-1.9-1.47-3.8-2.95-5.693-4.417h0a.559.559,0,0,0-.15-.09.028.028,0,0,1-.027-.01.627.627,0,0,0-.193,0h-.01a.725.725,0,0,0-.2.057h-.007a.6.6,0,0,0-.143.147c0-.01,0-.01,0-.01s0,0,0,.01c-.577.8-1.157,1.583-1.74,2.39a1.14,1.14,0,0,1-.37.353,3.972,3.972,0,0,1-4.52-.283,30.316,30.316,0,0,1-4.1-3.427h0a30.57,30.57,0,0,1-3.427-4.1,3.961,3.961,0,0,1-.283-4.52h0a1.355,1.355,0,0,1,.31-.34l2.357-1.707a.771.771,0,0,1,.08-.067.691.691,0,0,0,.123-.113.156.156,0,0,1,.017-.033.529.529,0,0,0,.067-.193.505.505,0,0,0-.007-.2.419.419,0,0,0-.063-.137.277.277,0,0,1-.043-.053Z" transform="translate(-10.002 -9.996)"/>
</svg>
