<svg id="圖層_1" data-name="圖層 1" xmlns="http://www.w3.org/2000/svg" xmlns:xlink="http://www.w3.org/1999/xlink" viewBox="0 0 158 33"><defs><style>.cls-1{fill:url(#linear-gradient);}.cls-2{fill:url(#linear-gradient-2);}.cls-3{fill:#c29b61;}</style><linearGradient id="linear-gradient" x1="79" x2="79" y2="33" gradientUnits="userSpaceOnUse"><stop offset="0" stop-color="#c29b61"/><stop offset="1" stop-color="#c29b61" stop-opacity="0"/></linearGradient><linearGradient id="linear-gradient-2" x1="79" y1="30.46" x2="79" y2="2.54" gradientUnits="userSpaceOnUse"><stop offset="0" stop-color="#c29b61" stop-opacity="0"/><stop offset="0.19" stop-color="#c29a60" stop-opacity="0.02"/><stop offset="0.34" stop-color="#c0995f" stop-opacity="0.08"/><stop offset="0.48" stop-color="#be965c" stop-opacity="0.17"/><stop offset="0.62" stop-color="#bb9258" stop-opacity="0.31"/><stop offset="0.74" stop-color="#b88d53" stop-opacity="0.49"/><stop offset="0.87" stop-color="#b3864d" stop-opacity="0.71"/><stop offset="0.98" stop-color="#ae7f46" stop-opacity="0.96"/><stop offset="1" stop-color="#ad7e45"/></linearGradient></defs><title>help-tab-up</title><path class="cls-1" d="M153,2.54a2.52,2.52,0,0,1,2.51,2.54V27.92A2.52,2.52,0,0,1,153,30.46H5a2.52,2.52,0,0,1-2.51-2.54V5.08A2.52,2.52,0,0,1,5,2.54H153M153,0H5A5,5,0,0,0,0,5.08V27.92A5,5,0,0,0,5,33H153a5,5,0,0,0,5-5.08V5.08A5,5,0,0,0,153,0Z"/><path class="cls-2" d="M153,2.54H5A2.52,2.52,0,0,0,2.51,5.08V27.92A2.52,2.52,0,0,0,5,30.46H153a2.52,2.52,0,0,0,2.51-2.54V5.08A2.52,2.52,0,0,0,153,2.54Z"/><polygon class="cls-3" points="89.03 2.54 68.97 2.54 79 12.69 89.03 2.54"/></svg>