<?xml version="1.0" encoding="utf-8"?>
<!-- Generator: Adobe Illustrator 23.0.0, SVG Export Plug-In . SVG Version: 6.00 Build 0)  -->
<svg version="1.1" id="圖層_1" xmlns="http://www.w3.org/2000/svg" xmlns:xlink="http://www.w3.org/1999/xlink" x="0px" y="0px"
	 viewBox="0 0 595.3 529.2" style="enable-background:new 0 0 595.3 529.2;" xml:space="preserve">
<style type="text/css">
	.st0{fill:#FFC107;}
</style>
<path class="st0" d="M415.8,356.5l33.1-33.1c5.2-5.2,14.2-1.5,14.2,5.9v150.3c0,27.4-22.2,49.6-49.6,49.6H49.6
	C22.2,529.2,0,507,0,479.6V115.8c0-27.4,22.2-49.6,49.6-49.6h282.7c7.3,0,11.1,8.9,5.9,14.2l-33.1,33.1c-1.6,1.6-3.6,2.4-5.9,2.4
	H49.6v363.8h363.8V362.3C413.4,360.1,414.2,358.1,415.8,356.5z M577.6,148L306.2,419.4l-93.4,10.3c-27.1,3-50.1-19.8-47.1-47.1
	l10.3-93.4L447.4,17.7c23.7-23.7,61.9-23.7,85.5,0l44.6,44.6C601.2,86.1,601.2,124.4,577.6,148L577.6,148L577.6,148z M475.5,179.9
	l-60-60L223.4,312l-7.5,67.5l67.5-7.5L475.5,179.9z M542.5,97.5l-44.6-44.6c-4.2-4.2-11.2-4.2-15.3,0l-31.9,31.9l60,60l31.9-31.9
	C546.7,108.6,546.7,101.8,542.5,97.5z"/>
</svg>
