<svg id="圖層_1" data-name="圖層 1" xmlns="http://www.w3.org/2000/svg" xmlns:xlink="http://www.w3.org/1999/xlink" viewBox="0 0 112.5 87.5"><defs><style>.cls-1{fill:url(#linear-gradient);}.cls-2{fill:url(#linear-gradient-2);}</style><linearGradient id="linear-gradient" x1="56.25" y1="87.5" x2="56.25" gradientUnits="userSpaceOnUse"><stop offset="0" stop-color="#fff" stop-opacity="0"/><stop offset="0.16" stop-color="#fff" stop-opacity="0.01"/><stop offset="0.29" stop-color="#fff" stop-opacity="0.05"/><stop offset="0.41" stop-color="#fff" stop-opacity="0.12"/><stop offset="0.52" stop-color="#fff" stop-opacity="0.21"/><stop offset="0.63" stop-color="#fff" stop-opacity="0.33"/><stop offset="0.74" stop-color="#fff" stop-opacity="0.48"/><stop offset="0.84" stop-color="#fff" stop-opacity="0.66"/><stop offset="0.94" stop-color="#fff" stop-opacity="0.86"/><stop offset="1" stop-color="#fff"/></linearGradient><linearGradient id="linear-gradient-2" x1="56.25" y1="85" x2="56.25" y2="2.5" gradientUnits="userSpaceOnUse"><stop offset="0" stop-color="#fff" stop-opacity="0"/><stop offset="0.19" stop-color="#fff" stop-opacity="0.01"/><stop offset="0.34" stop-color="#fff" stop-opacity="0.05"/><stop offset="0.48" stop-color="#fff" stop-opacity="0.12"/><stop offset="0.61" stop-color="#fff" stop-opacity="0.21"/><stop offset="0.73" stop-color="#fff" stop-opacity="0.33"/><stop offset="0.86" stop-color="#fff" stop-opacity="0.48"/><stop offset="0.97" stop-color="#fff" stop-opacity="0.65"/><stop offset="1" stop-color="#fff" stop-opacity="0.7"/></linearGradient></defs><title>index-slotbtn-out</title><path class="cls-1" d="M106.25,2.5A3.75,3.75,0,0,1,110,6.25v75A3.75,3.75,0,0,1,106.25,85H6.25A3.75,3.75,0,0,1,2.5,81.25v-75A3.75,3.75,0,0,1,6.25,2.5h100m0-2.5H6.25A6.25,6.25,0,0,0,0,6.25v75A6.25,6.25,0,0,0,6.25,87.5h100a6.25,6.25,0,0,0,6.25-6.25v-75A6.25,6.25,0,0,0,106.25,0Z"/><rect class="cls-2" x="2.5" y="2.5" width="107.5" height="82.5" rx="3.75"/></svg>