<svg id="圖層_1" data-name="圖層 1" xmlns="http://www.w3.org/2000/svg" xmlns:xlink="http://www.w3.org/1999/xlink" viewBox="0 0 600 30"><defs><style>.cls-1{fill:url(#linear-gradient);}</style><linearGradient id="linear-gradient" x1="300" y1="30" x2="300" gradientUnits="userSpaceOnUse"><stop offset="0" stop-color="#c29b61"/><stop offset="1" stop-color="#c29b61" stop-opacity="0.3"/></linearGradient></defs><title>logged_bar</title><path class="cls-1" d="M595.5,2a2.22,2.22,0,0,1,2.5,2.5v20c0,1.66-.85,3.49-2.5,3.49H5.5A3.92,3.92,0,0,1,2,24.51v-20C2,2.86,3.85,2,5.5,2H595m.5-2H5.5C2.74,0,0,1.75,0,4.51v20A5.89,5.89,0,0,0,5.5,30h590c2.76,0,4.5-2.73,4.5-5.49v-20A4.2,4.2,0,0,0,595.5,0Z"/></svg>