<svg id="0bb2cb0e-01be-42a6-9a91-aa033e5929c9" data-name="圖層 1" xmlns="http://www.w3.org/2000/svg" xmlns:xlink="http://www.w3.org/1999/xlink" viewBox="0 0 60 24"><defs><style>.\39 a8f24ac-67c5-4b3c-8be4-621ad19da7c8{fill:url(#2701bcc6-215c-48bd-9876-768c73ea273c);}.\32 57d9a10-c808-48f5-8293-a07f9df6e438{fill:url(#e5f3c1cf-7061-4ef5-b21d-c53eed79eaf3);}</style><linearGradient id="2701bcc6-215c-48bd-9876-768c73ea273c" x1="30" y1="24" x2="30" gradientUnits="userSpaceOnUse"><stop offset="0" stop-color="#e50012"/><stop offset="1" stop-color="#e50012" stop-opacity="0.3"/></linearGradient><linearGradient id="e5f3c1cf-7061-4ef5-b21d-c53eed79eaf3" x1="30" y1="22" x2="30" y2="2" gradientUnits="userSpaceOnUse"><stop offset="0" stop-color="#e50012" stop-opacity="0"/><stop offset="0.17" stop-color="#e50012" stop-opacity="0.01"/><stop offset="0.31" stop-color="#e50012" stop-opacity="0.06"/><stop offset="0.43" stop-color="#e50012" stop-opacity="0.13"/><stop offset="0.55" stop-color="#e50012" stop-opacity="0.24"/><stop offset="0.66" stop-color="#e50012" stop-opacity="0.37"/><stop offset="0.77" stop-color="#e50012" stop-opacity="0.54"/><stop offset="0.88" stop-color="#e50012" stop-opacity="0.73"/><stop offset="0.98" stop-color="#e50012" stop-opacity="0.95"/><stop offset="1" stop-color="#e50012"/></linearGradient></defs><title>index_工作區域 1</title><path class="9a8f24ac-67c5-4b3c-8be4-621ad19da7c8" d="M48,2a10,10,0,0,1,0,20H12A10,10,0,0,1,12,2H48m0-2H12a12,12,0,0,0,0,24H48A12,12,0,0,0,48,0Z"/><path class="257d9a10-c808-48f5-8293-a07f9df6e438" d="M12,22H48A10,10,0,0,0,48,2H12a10,10,0,0,0,0,20Z"/></svg>