<?xml version="1.0" encoding="utf-8"?>
<!-- Generator: Adobe Illustrator 23.0.0, SVG Export Plug-In . SVG Version: 6.00 Build 0)  -->
<svg version="1.1" id="圖層_1" xmlns="http://www.w3.org/2000/svg" xmlns:xlink="http://www.w3.org/1999/xlink" x="0px" y="0px"
	 viewBox="0 0 78.2 60.3" style="enable-background:new 0 0 78.2 60.3;" xml:space="preserve">
<style type="text/css">
	.st0{fill:#C29C61;}
</style>
<title>icon-msg-horn</title>
<path class="st0" d="M40.8,60.3c-0.7,0-1.4-0.2-2-0.5L17.4,47.1c-1.2-0.7-2-2-2-3.4V16.5c0-1.4,0.8-2.7,2-3.4L38.8,0.6
	c1.9-1.1,4.4-0.4,5.5,1.5c0.3,0.6,0.5,1.3,0.5,2v52.3C44.8,58.5,43,60.3,40.8,60.3L40.8,60.3z M23.4,41.4l13.5,7.9V10.9l-13.5,7.9
	V41.4z"/>
<path class="st0" d="M19.4,47.7h-7.9C5.1,47.7,0,42.6,0,36.2V24c0-6.3,5.1-11.4,11.4-11.4h7.9c2.2,0,4,1.8,4,4v27.1
	C23.4,45.9,21.6,47.7,19.4,47.7z M11.4,20.5C9.5,20.6,8,22.1,8,24v12.2c0,1.9,1.6,3.5,3.5,3.5h4V20.5H11.4z"/>
<path class="st0" d="M65.3,55.8c-2.2,0-4-1.8-3.9-4.1c0-1,0.4-2,1.1-2.7c10.4-10.4,10.4-27.3,0-37.7c-1.7-1.4-2-3.9-0.6-5.6
	s3.9-2,5.6-0.6c0.2,0.2,0.5,0.4,0.6,0.6c13.5,13.5,13.5,35.5,0,49C67.3,55.4,66.3,55.8,65.3,55.8z"/>
<path class="st0" d="M53.6,44.1c-2.2,0-4-1.8-3.9-4.1c0-1,0.4-2,1.1-2.7c4-4,4-10.4,0-14.3c-1.4-1.7-1.1-4.2,0.6-5.6
	c1.5-1.2,3.5-1.2,5,0c7.1,7.1,7.1,18.5,0,25.6c0,0,0,0,0,0C55.6,43.7,54.6,44.1,53.6,44.1z"/>
</svg>
