<svg xmlns="http://www.w3.org/2000/svg" xmlns:xlink="http://www.w3.org/1999/xlink" viewBox="0 0 362 230.93"><defs><style>.cls-1{isolation:isolate;}.cls-2{fill:none;mix-blend-mode:overlay;}.cls-3{fill:url(#linear-gradient);}</style><linearGradient id="linear-gradient" x1="181" y1="230.93" x2="181" gradientUnits="userSpaceOnUse"><stop offset="0" stop-color="#c79f62"/><stop offset="1" stop-color="#c79f62" stop-opacity="0.3"/></linearGradient></defs><title>index-winner</title><g class="cls-1"><g id="圖層_1" data-name="圖層 1"><rect class="cls-2" x="1.19" y="0.58" width="359.62" height="230.09" rx="12.19"/><path class="cls-3" d="M349.52,0h-337A12.48,12.48,0,0,0,0,12.48v206a12.48,12.48,0,0,0,12.48,12.48h337A12.48,12.48,0,0,0,362,218.45v-206A12.48,12.48,0,0,0,349.52,0Zm10,218.45a10,10,0,0,1-10,10h-337a10,10,0,0,1-10-10v-206a10,10,0,0,1,10-10h111.1a5,5,0,0,1,5,5v0h0V20a5,5,0,0,0,5,5h99.87a5,5,0,0,0,5-5V7.49h0v0a5,5,0,0,1,5-5H349.52a10,10,0,0,1,10,10Z"/></g></g></svg>