<svg id="094f10a0-30f5-41e4-86db-c3d1e4fbba24" data-name="圖層 1" xmlns="http://www.w3.org/2000/svg" xmlns:xlink="http://www.w3.org/1999/xlink" viewBox="0 0 209.99 36"><defs><style>.\39 0ac1036-e809-42d9-a2b7-a2fdb7fbeb01{fill:url(#5a78006b-a731-4a57-bb01-fd50551186f5);}.f8142aaa-dba6-49b6-9d97-5ecafe2ae00b{fill:url(#b4e8fa8c-7709-4ce4-8c3a-3d2c12216a27);}</style><linearGradient id="5a78006b-a731-4a57-bb01-fd50551186f5" x1="105" y1="36" x2="105" gradientUnits="userSpaceOnUse"><stop offset="0" stop-color="#bf9b62"/><stop offset="1" stop-color="#491d11"/></linearGradient><linearGradient id="b4e8fa8c-7709-4ce4-8c3a-3d2c12216a27" x1="105" y1="3.6" x2="105" y2="32.4" xlink:href="#5a78006b-a731-4a57-bb01-fd50551186f5"/></defs><title>login_1</title><path class="90ac1036-e809-42d9-a2b7-a2fdb7fbeb01" d="M210,18c0,9.94-6.71,18-15,18H15C6.72,36,0,27.94,0,18H0C0,8.06,6.72,0,15,0H195c8.29,0,15,8.06,15,18Z"/><path class="f8142aaa-dba6-49b6-9d97-5ecafe2ae00b" d="M207,18c0,8-5.37,14.4-12,14.4H15C8.37,32.4,3,26,3,18H3C3,10.05,8.37,3.6,15,3.6H195c6.63,0,12,6.45,12,14.4Z"/></svg>