<svg id="4bb1049a-0981-438f-8913-43f2f399b0ca" data-name="圖層 1" xmlns="http://www.w3.org/2000/svg" xmlns:xlink="http://www.w3.org/1999/xlink" viewBox="0 0 90 65"><defs><style>.b4ed3dbd-9083-49b8-bc4f-7bd2fe1412ce{fill:url(#0a8401e0-fcb6-4696-90ab-fa86c308e920);}.\35 7e27822-1daa-479d-b9be-a590f2e5d7f8{opacity:0.7;fill:url(#4f46be9b-523c-4e0d-be56-e457bfc96a68);}</style><linearGradient id="0a8401e0-fcb6-4696-90ab-fa86c308e920" x1="45" x2="45" y2="65" gradientUnits="userSpaceOnUse"><stop offset="0" stop-color="#fff"/><stop offset="1" stop-color="#fff" stop-opacity="0"/></linearGradient><linearGradient id="4f46be9b-523c-4e0d-be56-e457bfc96a68" x1="45" y1="62" x2="45" y2="3" gradientUnits="userSpaceOnUse"><stop offset="0" stop-color="#fff" stop-opacity="0"/><stop offset="0.16" stop-color="#fff" stop-opacity="0.01"/><stop offset="0.29" stop-color="#fff" stop-opacity="0.05"/><stop offset="0.41" stop-color="#fff" stop-opacity="0.12"/><stop offset="0.52" stop-color="#fff" stop-opacity="0.21"/><stop offset="0.63" stop-color="#fff" stop-opacity="0.33"/><stop offset="0.74" stop-color="#fff" stop-opacity="0.48"/><stop offset="0.84" stop-color="#fff" stop-opacity="0.66"/><stop offset="0.94" stop-color="#fff" stop-opacity="0.86"/><stop offset="1" stop-color="#fff"/></linearGradient></defs><title>nav_btn_out</title><path class="b4ed3dbd-9083-49b8-bc4f-7bd2fe1412ce" d="M84,3a3,3,0,0,1,3,3V59a3,3,0,0,1-3,3H6a3,3,0,0,1-3-3V6A3,3,0,0,1,6,3H84m0-3H6A6,6,0,0,0,0,6V59a6,6,0,0,0,6,6H84a6,6,0,0,0,6-6V6a6,6,0,0,0-6-6Z"/><rect class="57e27822-1daa-479d-b9be-a590f2e5d7f8" x="3" y="3" width="84" height="59" rx="3" ry="3"/></svg>