<svg id="圖層_1" data-name="圖層 1" xmlns="http://www.w3.org/2000/svg" viewBox="0 0 138 50"><defs><style>.cls-1{fill:#fff;}</style></defs><title>page-next-out</title><path class="cls-1" d="M112.92,2a2.76,2.76,0,0,1,2,.81l20.31,20.24A2.73,2.73,0,0,1,136,25a2.76,2.76,0,0,1-.81,2L114.88,47.19a2.8,2.8,0,0,1-2,.81H6.27A4.27,4.27,0,0,1,2,43.75V6.25A4.27,4.27,0,0,1,6.27,2H112.92m0-2H6.27A6.26,6.26,0,0,0,0,6.25v37.5A6.26,6.26,0,0,0,6.27,50H112.92a4.8,4.8,0,0,0,3.37-1.4L136.6,28.37a4.75,4.75,0,0,0,0-6.74L116.29,1.4A4.76,4.76,0,0,0,112.92,0Z"/></svg>