<svg id="圖層_1" data-name="圖層 1" xmlns="http://www.w3.org/2000/svg" xmlns:xlink="http://www.w3.org/1999/xlink" viewBox="0 0 200 30"><defs><style>.cls-1{fill:url(#linear-gradient);}.cls-2{fill:none;}</style><linearGradient id="linear-gradient" x1="100" y1="30" x2="100" gradientUnits="userSpaceOnUse"><stop offset="0" stop-color="#c29b61"/><stop offset="1" stop-color="#c29b61" stop-opacity="0.3"/></linearGradient></defs><title>slots-search</title><path class="cls-1" d="M195,2.5A2.5,2.5,0,0,1,197.5,5V25a2.5,2.5,0,0,1-2.5,2.5H5A2.5,2.5,0,0,1,2.5,25V5A2.5,2.5,0,0,1,5,2.5H195M195,0H5A5,5,0,0,0,0,5V25a5,5,0,0,0,5,5H195a5,5,0,0,0,5-5V5a5,5,0,0,0-5-5Z"/><rect class="cls-2" x="2.5" y="2.5" width="195" height="25" rx="2.5"/></svg>