<svg id="圖層_1" data-name="圖層 1" xmlns="http://www.w3.org/2000/svg" xmlns:xlink="http://www.w3.org/1999/xlink" viewBox="0 0 158 33"><defs><style>.cls-1{fill:url(#linear-gradient);}.cls-2{fill:url(#linear-gradient-2);}</style><linearGradient id="linear-gradient" x1="79" y1="33" x2="79" gradientUnits="userSpaceOnUse"><stop offset="0" stop-color="#fff"/><stop offset="1" stop-color="#fff" stop-opacity="0"/></linearGradient><linearGradient id="linear-gradient-2" x1="79" y1="2.54" x2="79" y2="30.46" gradientUnits="userSpaceOnUse"><stop offset="0" stop-color="#fff" stop-opacity="0"/><stop offset="0.16" stop-color="#fff" stop-opacity="0.01"/><stop offset="0.29" stop-color="#fff" stop-opacity="0.05"/><stop offset="0.41" stop-color="#fff" stop-opacity="0.12"/><stop offset="0.52" stop-color="#fff" stop-opacity="0.21"/><stop offset="0.63" stop-color="#fff" stop-opacity="0.33"/><stop offset="0.74" stop-color="#fff" stop-opacity="0.48"/><stop offset="0.84" stop-color="#fff" stop-opacity="0.66"/><stop offset="0.94" stop-color="#fff" stop-opacity="0.86"/><stop offset="1" stop-color="#fff"/></linearGradient></defs><title>help-tab-out</title><path class="cls-1" d="M153,2.54a2.52,2.52,0,0,1,2.51,2.54V27.92A2.52,2.52,0,0,1,153,30.46H5a2.52,2.52,0,0,1-2.51-2.54V5.08A2.52,2.52,0,0,1,5,2.54H153M153,0H5A5,5,0,0,0,0,5.08V27.92A5,5,0,0,0,5,33H153a5,5,0,0,0,5-5.08V5.08A5,5,0,0,0,153,0Z"/><path class="cls-2" d="M153,2.54H5A2.52,2.52,0,0,0,2.51,5.08V27.92A2.52,2.52,0,0,0,5,30.46H153a2.52,2.52,0,0,0,2.51-2.54V5.08A2.52,2.52,0,0,0,153,2.54Z"/></svg>