<?xml version="1.0" encoding="utf-8"?>
<!-- Generator: Adobe Illustrator 23.0.0, SVG Export Plug-In . SVG Version: 6.00 Build 0)  -->
<svg version="1.1" id="圖層_1" xmlns="http://www.w3.org/2000/svg" xmlns:xlink="http://www.w3.org/1999/xlink" x="0px" y="0px"
	 viewBox="0 0 85 103" style="enable-background:new 0 0 85 103;" xml:space="preserve">
<style type="text/css">
	.st0{fill:#FFFFFF;}
</style>
<g>
	<path class="st0" d="M7,43.1V30.3c0-8.3,3.4-15.9,8.9-21.4l0,0H16C21.5,3.4,34.2,0,42.5,0s21.1,3.4,26.6,8.9l0,0
		c5.5,5.5,8.9,13,8.9,21.4v12.8c0.9,0,1.7,0.2,2.6,0.5l0,0l0,0c0.9,0.4,1.7,0.9,2.3,1.6c0.7,0.7,1.2,1.5,1.6,2.3l0.1,0.2
		c0.3,0.8,0.5,1.7,0.5,2.6v6.4v6.4c0,1-0.2,1.9-0.6,2.8l0,0l0,0c-0.4,0.9-0.9,1.7-1.6,2.3c-0.7,0.7-1.5,1.2-2.3,1.6l-0.2,0.1
		c-0.8,0.3-1.7,0.5-2.6,0.5h-3h-3c-1,0-1.9-0.2-2.8-0.6l0,0l0,0c-0.9-0.3-1.7-0.9-2.3-1.6c-1.3-1.3-2.1-3.1-2.1-5.1v-6.4v-6.4
		c0-1,0.2-1.9,0.6-2.8l0,0l0,0c0.4-0.9,0.9-1.7,1.6-2.3c1.3-1.2,3-2,4.9-2.1V31.8c-1.2-3.7-3.4-7.1-6.1-9.8l0,0l0,0
		c-4.5-4.5-16-7.4-22.9-7.4S24.3,17.4,19.8,22c-2.7,2.7-4.8,6.1-6.1,9.8v11.3c0.9,0,1.7,0.2,2.5,0.5l0,0l0,0
		c0.9,0.4,1.7,0.9,2.3,1.6c0.7,0.7,1.2,1.5,1.6,2.3l0.1,0.2c0.3,0.8,0.5,1.7,0.5,2.6v6.4v6.4c0,1-0.2,1.9-0.6,2.8l0,0l0,0
		c-0.4,0.9-0.9,1.7-1.6,2.3c-0.6,0.7-1.5,1.2-2.3,1.6L16,69.9c-0.8,0.3-1.7,0.5-2.5,0.5h-3h-3c-1,0-1.9-0.2-2.8-0.6l0,0l0,0
		c-0.9-0.3-1.7-0.9-2.3-1.6C0.8,66.9,0,65.1,0,63.1v-6.4v-6.4c0-1,0.2-1.9,0.6-2.8l0,0l0,0c0.4-0.9,0.9-1.7,1.6-2.3
		C3.4,44,5.1,43.2,7,43.1L7,43.1z M10.3,49.6h-3c-0.2,0-0.4,0.1-0.5,0.2C6.7,49.9,6.7,50,6.6,50l0,0c0,0.1,0,0.2,0,0.3v6.4v6.4
		c0,0.2,0.1,0.4,0.2,0.5S7,63.7,7,63.8l0,0c0.1,0,0.2,0,0.3,0h3h3c0.1,0,0.2,0,0.2,0h0.1c0.1-0.1,0.2-0.1,0.2-0.2
		c0.1-0.1,0.1-0.2,0.2-0.3l0,0c0-0.1,0-0.2,0-0.3v-6.4v-6.4c0-0.1,0-0.2,0-0.2v-0.1c0-0.1-0.1-0.2-0.2-0.2c-0.1-0.1-0.2-0.2-0.2-0.2
		l0,0c-0.1,0-0.2,0-0.3,0L10.3,49.6L10.3,49.6z M74.8,49.6h-3c-0.2,0-0.4,0.1-0.5,0.2c-0.1,0.1-0.1,0.2-0.2,0.2l0,0
		c0,0.1,0,0.2,0,0.3v6.4v6.4c0,0.2,0.1,0.4,0.2,0.5s0.2,0.1,0.2,0.2l0,0c0.1,0,0.2,0,0.3,0h3h3c0.1,0,0.2,0,0.2,0l0,0
		c0.1-0.1,0.2-0.1,0.3-0.2c0.1-0.1,0.1-0.2,0.2-0.3l0,0c0-0.1,0-0.2,0-0.3v-6.4v-6.4c0-0.1,0-0.2,0-0.2v-0.1c0-0.1-0.1-0.2-0.2-0.2
		c-0.1-0.1-0.2-0.2-0.3-0.2l0,0c-0.1,0-0.2,0-0.3,0L74.8,49.6L74.8,49.6z M69.4,20.6c-1.2-2.7-2.9-5.1-4.9-7.1l0,0l0,0
		c-4.3-4.3-15.5-7-22-7s-17.7,2.7-22,7c-2,2-3.7,4.4-4.9,7.1c0.4-0.4,0.8-0.9,1.3-1.3c5.3-5.2,17.7-8.5,25.7-8.5s20.4,3.3,25.7,8.5
		l0,0C68.6,19.7,69,20.1,69.4,20.6L69.4,20.6z"/>
	<path class="st0" d="M12.4,99.8c0,1.8-1.5,3.2-3.2,3.2c-1.8,0-3.2-1.4-3.2-3.2c0-5.9,2.4-10.3,5.8-13.5c4.6-4.4,11.1-6.4,15-6.7
		l0,0l0,0c0.8-0.1,1.5-0.4,2-0.8c0.3-0.3,0.5-0.6,0.6-1.1c-3.1-2.5-4.5-5.9-5.6-8.9c-0.6-1.4-1.1-2.7-1.4-2.9l0,0l0,0l0,0l0,0l0,0
		c-1.4-1.2-3.3-3.6-4.3-6.3c-1-2.6-1.2-5.5,0.3-8.2c-0.8-2.4-1.2-5.1-1.2-7.9l0,0c0-3.5,0.5-7.1,1.6-10.3l0.1-0.3
		c1.6-4.6,4.2-7.9,7.6-10.2c3.7-2.4,8.2-3.6,13.2-3.7c1.9,0,4.4-0.1,7,0.4c2.8,0.5,5.6,1.6,7.2,4c3.4-0.3,6.4,1.6,8.7,4.3
		c2.8,3.3,4.9,8.1,5.3,11c0.3,2.1,0.3,4.3,0,6.7c-0.2,1.9-0.6,3.8-1.2,5.7c1.7,2.8,1.5,5.8,0.5,8.6c-1,2.7-2.9,5-4.2,6.3l0,0l0,0
		l-0.1,0.1l0,0c-0.3,0.3-0.8,1.5-1.4,2.9c-1.2,2.8-2.5,6.2-5.5,8.7c0.1,0.4,0.3,0.9,0.6,1.2c0.5,0.5,1.2,0.8,2,0.9
		c3.9,0.3,10.3,2.3,15,6.7c3.3,3.2,5.8,7.6,5.8,13.6c0,1.8-1.5,3.2-3.2,3.2c-1.8,0-3.2-1.4-3.2-3.2c0-3.9-1.6-6.8-3.8-8.9
		c-3.4-3.3-8.2-4.7-11.1-5c-2.3-0.2-4.5-1.2-6-2.7c-1.7-1.8-4.2-8.1-1-10.1c2.2-1.4,3.4-4.3,4.4-6.8c0.9-2.2,1.6-4.1,3.1-5.3l0,0
		l0,0c0.8-0.7,2-2.2,2.6-3.8c0.4-1.2,0.5-2.4-0.2-3.2l0,0c-0.8-0.9-1.1-2.6-0.8-3.8c0.6-2,1.1-4,1.3-5.8c0.2-1.7,0.2-3.3,0-4.9
		c-0.3-2-1.8-5.4-3.8-7.8c-1.1-1.3-2.3-2.2-3.3-2.1c-1.1,0.2-2.3,0-3.2-0.5c-0.9-0.4-1.7-1.1-2.3-1.9l-0.2-0.3
		c-0.5-0.7-1.8-1.2-3.2-1.4c-1.9-0.4-4.1-0.3-5.7-0.3c-3.8,0.1-7.2,0.9-9.8,2.6c-2.3,1.5-4,3.8-5.1,7L24.6,35
		c-0.9,2.6-1.3,5.4-1.3,8.2l0,0l0,0c0,2.4,0.4,4.8,1.2,6.7c0.4,0.6,0.5,1.4,0.3,2.1c-0.3,2.1-2,2.2-1,4.9c0.6,1.6,1.7,3,2.6,3.8
		l0.1,0.1l0,0l0,0c1.4,1.3,2.2,3.2,3,5.3c1,2.5,2.2,5.4,4.4,6.8c1,0.5,1.7,1.6,1.7,2.8c0,2.8-0.4,5.2-2.5,7.3
		c-1.5,1.5-3.7,2.5-6,2.7l0,0c-2.9,0.3-7.6,1.7-11.1,5C14,93,12.4,95.9,12.4,99.8L12.4,99.8z"/>
</g>
</svg>
