<?xml version="1.0" encoding="utf-8"?>
<!-- Generator: Adobe Illustrator 16.0.0, SVG Export Plug-In . SVG Version: 6.00 Build 0)  -->
<!DOCTYPE svg PUBLIC "-//W3C//DTD SVG 1.1//EN" "http://www.w3.org/Graphics/SVG/1.1/DTD/svg11.dtd">
<svg version="1.1" id="圖層_1" xmlns="http://www.w3.org/2000/svg" xmlns:xlink="http://www.w3.org/1999/xlink" x="0px" y="0px"
	 width="595.281px" height="841.891px" viewBox="0 0 595.281 841.891" enable-background="new 0 0 595.281 841.891"
	 xml:space="preserve">
<g>
	<path fill="#FFFFFF" d="M508.09,210.447c-53.862-53.864-128.274-87.188-210.449-87.188c-82.184,0-156.596,33.324-210.458,87.188
		c-53.864,53.872-87.18,128.275-87.18,210.459c0,82.174,33.315,156.674,87.18,210.45c53.862,53.865,128.274,87.275,210.458,87.275
		c82.175,0,156.587-33.41,210.449-87.275c53.865-53.775,87.188-128.275,87.188-210.45
		C595.278,338.722,561.955,264.319,508.09,210.447z M129.303,252.49c27.199-27.111,60.428-42.989,92.112-46.617
		c30.731-3.452,59.909,4.662,80.282,25.035c20.365,20.373,28.313,49.553,24.859,80.107c-7.685,68.794-70.004,131.122-138.72,138.807
		c-30.65,3.453-59.821-4.574-80.194-24.947c-20.373-20.373-28.4-49.463-24.947-80.195
		C86.236,313.004,102.122,279.768,129.303,252.49z M475.722,598.987c-45.582,45.576-108.595,73.807-178.081,73.807
		c-69.495,0-132.508-28.23-178.081-73.807c-45.584-45.572-73.815-108.594-73.815-178.081c0-22.792,3.11-44.891,8.727-65.869
		c-0.78,33.841,10.27,65.782,33.754,89.264c26.586,26.586,63.87,37.119,102.548,32.799c37.723-4.232,76.908-22.791,108.595-54.389
		c31.676-31.765,50.234-70.95,54.468-108.673c4.399-38.678-6.222-75.962-32.72-102.557l-0.088-0.079
		c-23.562-23.484-55.414-34.446-89.166-33.666c20.976-5.704,42.987-8.631,65.779-8.631c69.486,0,132.499,28.137,178.081,73.712
		c45.575,45.582,73.807,108.603,73.807,178.089C549.528,490.393,521.297,553.414,475.722,598.987z M168.068,352.707l-0.604,3.285
		c-5.617,34.788,19.854,60.34,54.722,54.811c31.687-5.002,60.349-33.754,65.351-65.43c5.521-34.613-20.11-60.25-54.817-54.73
		l-3.278,0.691c0.78-11.909-2.594-22.967-10.356-31.335l-0.859-0.955c-21.327-21.319-55.423-9.665-73.815,8.641
		c-18.472,18.471-29.776,52.566-8.623,73.719C144.244,349.86,155.723,353.488,168.068,352.707z M237.038,317.753
		c16.229-2.594,25.981,7.072,23.477,23.387c-3.19,19.769-22.696,39.45-42.551,42.561c-16.579,2.584-26.07-7.081-23.485-23.484
		C197.589,340.194,217.018,320.855,237.038,317.753z M163.837,287.015c6.65-6.554,25.384-18.122,34.963-8.632l0.341,0.43
		c2.682,3.023,3.54,7.859,2.682,13.126c-2.332,15.37-17.788,30.73-33.149,33.149c-5.528,0.859-10.444-0.087-13.469-3.022
		C145.619,312.565,156.756,294.181,163.837,287.015z M508.267,407.176c-7.511,0-13.722,6.222-13.722,13.73
		c0,54.381-22.1,103.668-57.667,139.237l-0.693,0.693c-35.479,35.217-84.417,56.965-138.544,56.965
		c-7.597,0-13.731,6.221-13.731,13.73c0,7.598,6.135,13.721,13.731,13.721c61.461,0,117.226-24.77,157.796-64.912l0.858-0.779
		c40.58-40.658,65.782-96.766,65.782-158.655C522.077,413.397,515.863,407.176,508.267,407.176z"/>
</g>
</svg>
