<?xml version="1.0" encoding="utf-8"?>
<!-- Generator: Adobe Illustrator 23.0.0, SVG Export Plug-In . SVG Version: 6.00 Build 0)  -->
<svg version="1.1" id="圖層_1" xmlns="http://www.w3.org/2000/svg" xmlns:xlink="http://www.w3.org/1999/xlink" x="0px" y="0px"
	 viewBox="0 0 85 85.5" style="enable-background:new 0 0 85 85.5;" xml:space="preserve">
<style type="text/css">
	.st0{fill:#C29C61;}
</style>
<path class="st0" d="M69.1,79.7L40.4,60.5c-1-0.7-1.5-1.7-1.5-2.9l0,0v0h-3.6l6.6,18.9c0.6,1.8-0.3,3.8-2.1,4.4l-6.4,2.2l-6.4,2.2
	C25,86,23.1,85,22.4,83.2l-9.1-26.1c-3.5-0.8-6.5-2.7-8.8-5.3C1.7,48.7,0,44.6,0,40.2c0-4.8,2-9.1,5.1-12.3l0,0l0.1-0.1
	c3.1-3.1,7.5-5.1,12.2-5.1h21.4v0c0-1.3,0.7-2.4,1.7-3L69.4,0.6c1.6-1,3.7-0.6,4.8,1c0.4,0.6,0.6,1.2,0.6,1.9l0,0v23.4
	c2.4,0.6,4.5,1.8,6.2,3.5l0.1,0.1c2.5,2.5,4,5.9,4,9.7c0,3.8-1.5,7.2-4,9.8h0l0,0c-1.7,1.7-3.9,3-6.3,3.6V77c0,1.9-1.5,3.5-3.4,3.5
	C70.5,80.4,69.7,80.1,69.1,79.7L69.1,79.7z M41.6,50.7v-21H17.4c-2.9,0-5.5,1.2-7.4,3.1c-1.9,1.9-3.1,4.5-3.1,7.4c0,2.7,1,5.1,2.7,7
	c1.7,1.9,4,3.1,6.7,3.4l0,0c1.3,0.1,2.4,1,2.9,2.3l8.7,24.8l3.2-1.1l3.2-1.1l-7-19.9c-0.2-0.4-0.3-0.9-0.3-1.4
	c0-1.9,1.5-3.4,3.4-3.4L41.6,50.7L41.6,50.7z M45.7,26.3v27.8v0.1v0.1v0v1.5l22.1,14.7V9.9L45.7,24.6v1.6V26.3L45.7,26.3L45.7,26.3z
	 M74.7,31.2v18c1.3-0.5,2.4-1.3,3.4-2.2l0,0c1.7-1.7,2.8-4.2,2.8-6.8c0-2.7-1.1-5.1-2.8-6.8L78,33.3C77.1,32.4,75.9,31.7,74.7,31.2z
	"/>
</svg>
