<?xml version="1.0" encoding="utf-8"?>
<!-- Generator: Adobe Illustrator 23.0.0, SVG Export Plug-In . SVG Version: 6.00 Build 0)  -->
<svg version="1.1" id="圖層_1" xmlns="http://www.w3.org/2000/svg" xmlns:xlink="http://www.w3.org/1999/xlink" x="0px" y="0px"
	 viewBox="0 0 576.7 576.7" style="enable-background:new 0 0 576.7 576.7;" xml:space="preserve">
<style type="text/css">
	.st0{fill:#FFC107;}
</style>
<path class="st0" d="M288.3,0C129.1,0,0,129.2,0,288.3c0,159.3,129.1,288.3,288.3,288.3s288.3-129.1,288.3-288.3
	C576.7,129.2,447.6,0,288.3,0z M288.3,520.9c-128.5,0-232.5-104-232.5-232.5s104-232.5,232.5-232.5s232.5,104,232.5,232.5
	C520.9,416.8,416.9,520.9,288.3,520.9z M413,224.2c0,78-84.2,79.2-84.2,108v7.4c0,7.7-6.2,14-14,14h-53.1c-7.7,0-14-6.2-14-14v-10.1
	c0-41.6,31.5-58.2,55.3-71.5c20.4-11.4,32.9-19.2,32.9-34.4c0-20.1-25.6-33.4-46.3-33.4c-27,0-39.4,12.8-56.9,34.8
	c-4.7,6-13.3,7.1-19.4,2.5L180.9,203c-5.9-4.5-7.3-12.9-3.1-19c27.5-40.3,62.5-63,116.9-63C352.1,120.9,413,165.5,413,224.2z
	 M337.2,418.6c0,26.9-21.9,48.8-48.8,48.8s-48.8-21.9-48.8-48.8s21.9-48.8,48.8-48.8S337.2,391.6,337.2,418.6z"/>
</svg>
