<svg id="圖層_1" data-name="圖層 1" xmlns="http://www.w3.org/2000/svg" xmlns:xlink="http://www.w3.org/1999/xlink" viewBox="0 0 112 97.07"><defs><style>.cls-1{fill:url(#linear-gradient);}.cls-2{opacity:0.7;fill:url(#linear-gradient-2);}.cls-3{fill:#c79f62;}</style><linearGradient id="linear-gradient" x1="56" y1="87.11" x2="56" gradientUnits="userSpaceOnUse"><stop offset="0" stop-color="#c79f62"/><stop offset="1" stop-color="#c79f62" stop-opacity="0"/></linearGradient><linearGradient id="linear-gradient-2" x1="56" y1="2.49" x2="56" y2="84.62" gradientUnits="userSpaceOnUse"><stop offset="0" stop-color="#c79f62" stop-opacity="0"/><stop offset="0.19" stop-color="#c79e61" stop-opacity="0.02"/><stop offset="0.34" stop-color="#c59d60" stop-opacity="0.07"/><stop offset="0.48" stop-color="#c39a5d" stop-opacity="0.17"/><stop offset="0.61" stop-color="#c1965a" stop-opacity="0.3"/><stop offset="0.73" stop-color="#bd9155" stop-opacity="0.48"/><stop offset="0.86" stop-color="#b98a4f" stop-opacity="0.69"/><stop offset="0.97" stop-color="#b38348" stop-opacity="0.93"/><stop offset="1" stop-color="#b28146"/></linearGradient></defs><title>index-menubar-up</title><path class="cls-1" d="M105.78,2.49a3.73,3.73,0,0,1,3.73,3.73V80.89a3.73,3.73,0,0,1-3.73,3.73H6.22a3.73,3.73,0,0,1-3.73-3.73V6.22A3.73,3.73,0,0,1,6.22,2.49h99.56m0-2.49H6.22A6.22,6.22,0,0,0,0,6.22V80.89a6.21,6.21,0,0,0,6.22,6.22h99.56A6.22,6.22,0,0,0,112,80.89V6.22A6.23,6.23,0,0,0,105.78,0Z"/><rect class="cls-2" x="2.49" y="2.49" width="107.02" height="82.13" rx="3.73"/><polygon class="cls-3" points="65.96 87.11 46.04 87.11 56 97.07 65.96 87.11"/></svg>