<svg id="06cae7c6-a7e8-4507-90c0-5e92033077be" data-name="圖層 1" xmlns="http://www.w3.org/2000/svg" xmlns:xlink="http://www.w3.org/1999/xlink" viewBox="0 0 120 24"><defs><style>.e28915e0-0afe-4d26-b053-93e9e928c86f{fill:url(#e79a7cbe-6588-437e-b6b2-33c85e087e24);}.aea2126d-50e9-46dd-893b-31ea09c1f064{fill:url(#7fd524e3-4d75-492c-8dee-9621bc72c15d);}</style><linearGradient id="e79a7cbe-6588-437e-b6b2-33c85e087e24" x1="60" y1="24" x2="60" gradientUnits="userSpaceOnUse"><stop offset="0" stop-color="#c79f62"/><stop offset="1" stop-color="#c79f62" stop-opacity="0.3"/></linearGradient><linearGradient id="7fd524e3-4d75-492c-8dee-9621bc72c15d" x1="60" y1="2" x2="60" y2="22" gradientUnits="userSpaceOnUse"><stop offset="0" stop-color="#c79f62"/><stop offset="0.07" stop-color="#c79f62" stop-opacity="0.84"/><stop offset="0.18" stop-color="#c79f62" stop-opacity="0.62"/><stop offset="0.3" stop-color="#c79f62" stop-opacity="0.43"/><stop offset="0.42" stop-color="#c79f62" stop-opacity="0.27"/><stop offset="0.54" stop-color="#c79f62" stop-opacity="0.15"/><stop offset="0.68" stop-color="#c79f62" stop-opacity="0.07"/><stop offset="0.82" stop-color="#c79f62" stop-opacity="0.02"/><stop offset="1" stop-color="#c79f62" stop-opacity="0"/></linearGradient></defs><title>index_工作區域 1</title><path class="e28915e0-0afe-4d26-b053-93e9e928c86f" d="M108,2a10,10,0,0,1,0,20H12A10,10,0,0,1,12,2h96m0-2H12a12,12,0,0,0,0,24h96a12,12,0,0,0,0-24Z"/><path class="aea2126d-50e9-46dd-893b-31ea09c1f064" d="M108,2H12a10,10,0,0,0,0,20h96a10,10,0,0,0,0-20Z"/></svg>