<svg id="2daef855-3b45-431b-b30f-9ea8adba5499" data-name="圖層 1" xmlns="http://www.w3.org/2000/svg" xmlns:xlink="http://www.w3.org/1999/xlink" viewBox="0 0 60 24"><defs><style>.\38 fc13937-5bd8-4342-ab83-167219f4a7af{fill:url(#f1e777d2-48be-4afc-9ae3-1b57fcdcebfe);}.\34 51a6a3f-0984-48fa-a246-839bff92e495{fill:url(#7655a94f-8587-442c-a4b5-748a96890054);}</style><linearGradient id="f1e777d2-48be-4afc-9ae3-1b57fcdcebfe" x1="30" y1="24" x2="30" gradientUnits="userSpaceOnUse"><stop offset="0" stop-color="#00993e"/><stop offset="1" stop-color="#00993e" stop-opacity="0.3"/></linearGradient><linearGradient id="7655a94f-8587-442c-a4b5-748a96890054" x1="30" y1="22" x2="30" y2="2" gradientUnits="userSpaceOnUse"><stop offset="0" stop-color="#00993e" stop-opacity="0"/><stop offset="0.2" stop-color="#00993e" stop-opacity="0.02"/><stop offset="0.36" stop-color="#00993e" stop-opacity="0.09"/><stop offset="0.51" stop-color="#00993e" stop-opacity="0.2"/><stop offset="0.65" stop-color="#00993e" stop-opacity="0.35"/><stop offset="0.78" stop-color="#00993e" stop-opacity="0.55"/><stop offset="0.91" stop-color="#00993e" stop-opacity="0.8"/><stop offset="1" stop-color="#00993e"/></linearGradient></defs><title>index_工作區域 1</title><path class="8fc13937-5bd8-4342-ab83-167219f4a7af" d="M48,2a10,10,0,0,1,0,20H12A10,10,0,0,1,12,2H48m0-2H12a12,12,0,0,0,0,24H48A12,12,0,0,0,48,0Z"/><path class="451a6a3f-0984-48fa-a246-839bff92e495" d="M12,22H48A10,10,0,0,0,48,2H12a10,10,0,0,0,0,20Z"/></svg>